<svg width="22" height="22" viewBox="0 0 22 22" fill="none" xmlns="http://www.w3.org/2000/svg">
<g clip-path="url(#clip0_939_3793)">
<path d="M13.2967 21.9997C14.0323 21.9997 14.6738 21.3582 14.6738 20.6227V17.4066H15.5932C16.145 17.4066 16.5127 17.0388 16.5127 16.4872V7.30176H5.48767V16.4872C5.48767 17.0389 5.85548 17.4067 6.40716 17.4067H7.32673V20.6228C7.32673 21.3583 7.96803 21.9998 8.70378 21.9998C9.43928 21.9998 10.0807 21.3583 10.0807 20.6228V17.4067H11.9197V20.6228C11.9196 21.3582 12.5611 21.9997 13.2967 21.9997Z" fill="#4CABE9"/>
<path d="M18.8092 16.4872C19.5448 16.4872 20.1861 15.8458 20.1861 15.1102V8.67821C20.1861 7.9465 19.5448 7.30176 18.8092 7.30176C18.0735 7.30176 17.4321 7.94654 17.4321 8.67821V15.1102C17.4321 15.8458 18.0735 16.4872 18.8092 16.4872Z" fill="#4CABE9"/>
<path d="M3.19102 16.4872C3.92668 16.4872 4.56807 15.8458 4.56807 15.1102V8.67821C4.56807 7.9465 3.92677 7.30176 3.19102 7.30176C2.45544 7.30176 1.81409 7.94654 1.81409 8.67821V15.1102C1.81413 15.8458 2.45544 16.4872 3.19102 16.4872Z" fill="#4CABE9"/>
<path d="M15.4092 0.138735C15.2254 -0.0462449 14.9517 -0.0462449 14.7679 0.138735L13.5347 1.36785L13.4778 1.42466C12.7465 1.05848 11.9266 0.875603 11.0136 0.873841C11.0092 0.873841 11.0048 0.873712 11.0003 0.873712H11.0002C10.9955 0.873712 10.9913 0.873841 10.9867 0.873841C10.0737 0.875603 9.25387 1.05848 8.52267 1.42466L8.46565 1.36785L7.23241 0.138735C7.04846 -0.0462449 6.77492 -0.0462449 6.5911 0.138735C6.40716 0.322683 6.40716 0.595706 6.5911 0.779525L7.78404 1.97268C7.39964 2.22933 7.05108 2.54339 6.74798 2.9026C6.02233 3.76275 5.55943 4.88221 5.49579 6.09513C5.49519 6.10776 5.49394 6.12022 5.49339 6.13285C5.48948 6.21544 5.48767 6.29845 5.48767 6.38181H16.5127C16.5127 6.2985 16.5107 6.21548 16.507 6.13285C16.5064 6.12022 16.5051 6.10776 16.5044 6.09513C16.4409 4.88221 15.9779 3.76271 15.2522 2.90269C14.9492 2.54347 14.6005 2.22941 14.2161 1.97276L15.4092 0.779611C15.5932 0.595706 15.5932 0.322726 15.4092 0.138735ZM8.70198 4.77638C8.32158 4.77638 8.01315 4.46799 8.01315 4.08755C8.01315 3.7071 8.32153 3.39872 8.70198 3.39872C9.08238 3.39872 9.39081 3.7071 9.39081 4.08755C9.39081 4.46799 9.08238 4.77638 8.70198 4.77638ZM13.2983 4.77638C12.9179 4.77638 12.6095 4.46799 12.6095 4.08755C12.6095 3.7071 12.9179 3.39872 13.2983 3.39872C13.6787 3.39872 13.9872 3.7071 13.9872 4.08755C13.9872 4.46799 13.6788 4.77638 13.2983 4.77638Z" fill="#4CABE9"/>
</g>
<defs>
<clipPath id="clip0_939_3793">
<rect width="22" height="22" fill="white"/>
</clipPath>
</defs>
</svg>
