<svg width="18" height="18" viewBox="0 0 18 18" fill="none" xmlns="http://www.w3.org/2000/svg">
<g clip-path="url(#clip0_1221_61)">
<path d="M10.6776 17.6666C11.2683 17.6666 11.7834 17.1514 11.7834 16.5607V13.9782H12.5218C12.9649 13.9782 13.2602 13.6828 13.2602 13.2398V5.86365H4.40674V13.2399C4.40674 13.6829 4.7021 13.9782 5.14511 13.9782H5.88356V16.5608C5.88356 17.1515 6.39854 17.6666 6.98937 17.6666C7.58 17.6666 8.09509 17.1515 8.09509 16.5608V13.9782H9.57187V16.5608C9.5718 17.1514 10.0869 17.6666 10.6776 17.6666Z" fill="#B0C3CF"/>
<path d="M15.1044 13.2399C15.695 13.2399 16.2101 12.7248 16.2101 12.134V6.96898C16.2101 6.3814 15.6951 5.86365 15.1044 5.86365C14.5136 5.86365 13.9985 6.38143 13.9985 6.96898V12.134C13.9985 12.7247 14.5136 13.2399 15.1044 13.2399Z" fill="#B0C3CF"/>
<path d="M2.5625 13.2399C3.15326 13.2399 3.66832 12.7248 3.66832 12.134V6.96898C3.66832 6.3814 3.15333 5.86365 2.5625 5.86365C1.97181 5.86365 1.45679 6.38143 1.45679 6.96898V12.134C1.45682 12.7247 1.97181 13.2399 2.5625 13.2399Z" fill="#B0C3CF"/>
<path d="M12.374 0.111408C12.2264 -0.0371361 12.0067 -0.0371361 11.859 0.111408L10.8687 1.09843L10.823 1.14404C10.2358 0.849989 9.57743 0.703136 8.84426 0.701721C8.84067 0.701721 8.83712 0.701618 8.83353 0.701618H8.83343C8.8297 0.701618 8.82629 0.701721 8.82259 0.701721C8.08946 0.703136 7.43111 0.849989 6.84393 1.14404L6.79815 1.09843L5.80782 0.111408C5.6601 -0.0371361 5.44044 -0.0371361 5.29283 0.111408C5.14511 0.259124 5.14511 0.47837 5.29283 0.625982L6.25079 1.58412C5.94211 1.79022 5.6622 2.04242 5.41881 2.33088C4.83608 3.0216 4.46436 3.92056 4.41326 4.89457C4.41278 4.90472 4.41178 4.91472 4.41133 4.92487C4.40819 4.99119 4.40674 5.05785 4.40674 5.12479H13.2602C13.2602 5.05788 13.2586 4.99122 13.2556 4.92487C13.2551 4.91472 13.2541 4.90472 13.2535 4.89457C13.2025 3.92056 12.8307 3.02157 12.2479 2.33095C12.0047 2.04248 11.7246 1.79029 11.416 1.58419L12.374 0.626051C12.5218 0.47837 12.5218 0.259159 12.374 0.111408ZM6.98792 3.83558C6.68245 3.83558 6.43477 3.58793 6.43477 3.28242C6.43477 2.97692 6.68242 2.72927 6.98792 2.72927C7.2934 2.72927 7.54108 2.97692 7.54108 3.28242C7.54108 3.58793 7.2934 3.83558 6.98792 3.83558ZM10.6789 3.83558C10.3735 3.83558 10.1258 3.58793 10.1258 3.28242C10.1258 2.97692 10.3734 2.72927 10.6789 2.72927C10.9844 2.72927 11.2321 2.97692 11.2321 3.28242C11.2321 3.58793 10.9844 3.83558 10.6789 3.83558Z" fill="#B0C3CF"/>
</g>
<defs>
<clipPath id="clip0_1221_61">
<rect width="17.6667" height="17.6667" fill="white"/>
</clipPath>
</defs>
</svg>
