<svg width="18" height="18" viewBox="0 0 18 18" fill="none" xmlns="http://www.w3.org/2000/svg">
<g clip-path="url(#clip0_1221_70)">
<path d="M11.4152 2.68498C12.08 1.97332 12.5296 0.985265 12.4065 0C11.4488 0.0341774 10.2881 0.562169 9.60072 1.27377C8.9845 1.90375 8.445 2.91059 8.58898 3.87652C9.65763 3.94882 10.7494 3.3955 11.4152 2.68498ZM13.4548 9.48925C13.4343 7.28038 15.2036 6.21949 15.2819 6.16823C14.2873 4.66824 12.7382 4.46299 12.1865 4.43985C10.8675 4.30138 9.6146 5.23865 8.94493 5.23865C8.27799 5.23865 7.24637 4.45802 6.15239 4.47899C4.71421 4.50269 3.38905 5.34015 2.65042 6.66743C1.15643 9.33757 2.2675 13.293 3.72331 15.4588C4.43497 16.5191 5.28232 17.7085 6.39502 17.6655C7.46912 17.6225 7.87404 16.9511 9.16993 16.9511C10.4664 16.9511 10.8294 17.6655 11.9636 17.644C13.1177 17.6225 13.848 16.5633 14.5537 15.4997C15.3701 14.27 15.7067 13.0795 15.7259 13.0194C15.7011 13.005 13.4785 12.1307 13.4548 9.48925Z" fill="#B0C3CF"/>
</g>
<defs>
<clipPath id="clip0_1221_70">
<rect width="17.6667" height="17.6667" fill="white"/>
</clipPath>
</defs>
</svg>
