<svg width="22" height="22" viewBox="0 0 22 22" fill="none" xmlns="http://www.w3.org/2000/svg">
<path d="M13.9227 4.0396C14.6753 3.23395 15.1843 2.11539 15.045 1C13.9608 1.03869 12.6468 1.63642 11.8686 2.44201C11.171 3.15519 10.5602 4.29501 10.7232 5.38852C11.933 5.47036 13.169 4.84396 13.9227 4.0396ZM16.2317 11.7425C16.2086 9.24194 18.2115 8.04093 18.3002 7.9829C17.1741 6.2848 15.4205 6.05245 14.7959 6.02624C13.3027 5.86948 11.8843 6.93055 11.1262 6.93055C10.3712 6.93055 9.2033 6.04682 7.96483 6.07056C6.3367 6.09738 4.83652 7.04546 4.00034 8.54804C2.30903 11.5708 3.56684 16.0487 5.21493 18.5006C6.02059 19.7009 6.97985 21.0474 8.23951 20.9987C9.45547 20.95 9.91387 20.19 11.3809 20.19C12.8486 20.19 13.2595 20.9987 14.5435 20.9743C15.85 20.95 16.6769 19.7509 17.4757 18.5468C18.4 17.1547 18.781 15.807 18.8028 15.7389C18.7747 15.7227 16.2585 14.7328 16.2317 11.7425Z" fill="#4CABE9"/>
</svg>
