<svg width="30" height="30" viewBox="0 0 30 30" fill="none" xmlns="http://www.w3.org/2000/svg">
<g clip-path="url(#clip0_939_3813)">
<path d="M15 0C6.7159 0 0 6.7159 0 15C0 23.2841 6.7159 30 15 30C23.2841 30 30 23.2841 30 15C30 6.7159 23.2841 0 15 0ZM15 27.5C8.0966 27.5 2.50002 21.9034 2.50002 15C2.50002 8.0966 8.0966 2.50002 15 2.50002C21.9034 2.50002 27.5 8.0966 27.5 15C27.5 21.9034 21.9034 27.5 15 27.5Z" fill="#DDEAF5"/>
<path d="M18.3839 7.86611C17.8958 7.37796 17.1043 7.37796 16.6161 7.86611L10.3661 14.1161C9.87796 14.6043 9.87796 15.3958 10.3661 15.8839L16.6161 22.1339C17.1043 22.6221 17.8958 22.6221 18.3839 22.1339C18.872 21.6458 18.872 20.8543 18.3839 20.3661L13.0178 15L18.3839 9.63388C18.872 9.14574 18.872 8.35431 18.3839 7.86611Z" fill="#DDEAF5"/>
</g>
<defs>
<clipPath id="clip0_939_3813">
<rect width="30" height="30" fill="white"/>
</clipPath>
</defs>
</svg>
