<svg width="19" height="20" viewBox="0 0 19 20" fill="none" xmlns="http://www.w3.org/2000/svg">
<path d="M17.2188 5.12148H9.24944L7.68253 2.92223C7.57091 2.76548 7.391 2.67285 7.19922 2.67285H1.78125C0.799187 2.67285 0 3.47204 0 4.4541V15.5465C0 16.5286 0.799187 17.3278 1.78125 17.3278H17.2188C18.2008 17.3278 19 16.5286 19 15.5465V6.90273C19 5.92066 18.2008 5.12148 17.2188 5.12148ZM17.8125 15.5465C17.8125 15.8737 17.5465 16.1403 17.2188 16.1403H1.78125C1.4535 16.1403 1.1875 15.8737 1.1875 15.5465V4.4541C1.1875 4.12695 1.4535 3.86035 1.78125 3.86035H6.89284L8.45975 6.0596C8.57137 6.21635 8.75128 6.30898 8.94306 6.30898H17.2188C17.5465 6.30898 17.8125 6.57557 17.8125 6.90273V15.5465ZM11.118 12.44C11.9302 11.2347 11.8061 9.58113 10.7403 8.51535C10.1549 7.92932 9.37531 7.60691 8.54703 7.60691C7.71875 7.60691 6.93975 7.92932 6.35372 8.51535C5.14425 9.72482 5.14425 11.6925 6.35372 12.9026C6.93975 13.488 7.71875 13.8104 8.54762 13.8104C9.17463 13.8104 9.77253 13.6246 10.2796 13.2808L11.4018 14.4024C11.5176 14.5182 11.6696 14.5764 11.8216 14.5764C11.9736 14.5764 12.1256 14.5182 12.2413 14.4024C12.4735 14.1702 12.4735 13.7944 12.2413 13.5628L11.118 12.44ZM7.19269 12.063C6.44634 11.3167 6.44634 10.1019 7.19269 9.35551C7.55428 8.99391 8.03522 8.79441 8.54644 8.79441C9.05766 8.79441 9.53859 8.99332 9.90019 9.35491C10.6465 10.1013 10.6465 11.3161 9.90019 12.063C9.17759 12.785 7.91588 12.7844 7.19269 12.063Z" fill="white"/>
</svg>
