<svg width="27" height="27" viewBox="0 0 27 27" fill="none" xmlns="http://www.w3.org/2000/svg">
<path d="M13.5 26C20.4036 26 26 20.4036 26 13.5C26 6.59644 20.4036 1 13.5 1C6.59644 1 1 6.59644 1 13.5C1 20.4036 6.59644 26 13.5 26Z" fill="#7D8F9F" fill-opacity="0.45"/>
<path fill-rule="evenodd" clip-rule="evenodd" d="M9.5967 19.5966L5.02505 14.7036C4.39916 14.0337 4.43509 12.9739 5.10497 12.348C5.77485 11.7221 6.83469 11.7581 7.46058 12.4279L10.987 16.2021L16.5688 10.9869C16.6189 10.9399 16.6714 10.8969 16.7256 10.8573L19.3505 8.40489C20.0204 7.779 21.0804 7.81502 21.7062 8.4849C22.332 9.15469 22.296 10.2146 21.6262 10.8405L13.6091 18.3312L13.6005 18.322L10.8273 20.9132L9.5967 19.596V19.5966Z" fill="white"/>
</svg>
