<svg width="89" height="96" viewBox="0 0 89 96" fill="none" xmlns="http://www.w3.org/2000/svg">
<path d="M68.8083 78.7017C68.316 78.7017 67.8368 78.9023 67.4901 79.251C67.1414 79.5998 66.9436 80.0835 66.9436 80.5767C66.9436 81.0698 67.1414 81.5535 67.4901 81.9023C67.8368 82.2529 68.3162 82.4517 68.8083 82.4517C69.2987 82.4517 69.778 82.2529 70.1267 81.9023C70.4735 81.5535 70.673 81.0698 70.673 80.5767C70.673 80.0835 70.4737 79.5998 70.1267 79.251C69.778 78.9023 69.2985 78.7017 68.8083 78.7017Z" fill="url(#paint0_linear_1021_4962)"/>
<path d="M43.4911 26.0337C27.5406 26.0337 14.5637 39.082 14.5637 55.1208C14.5637 71.1596 27.5406 84.208 43.4911 84.208C59.4416 84.208 72.4185 71.1596 72.4185 55.1208C72.4185 39.082 59.4416 26.0337 43.4911 26.0337ZM43.4911 80.4579C29.5968 80.4579 18.2932 69.0917 18.2932 55.1208C18.2932 41.15 29.5968 29.7837 43.4911 29.7837C57.3854 29.7837 68.689 41.15 68.689 55.1208C68.689 69.0917 57.3854 80.4579 43.4911 80.4579Z" fill="url(#paint1_linear_1021_4962)"/>
<path d="M55.2865 40.6087L46.0505 49.8955C45.2782 49.5115 44.4094 49.2946 43.491 49.2946C42.5724 49.2946 41.7038 49.5115 40.9315 49.8955L36.7979 45.7392C36.0696 45.007 34.8892 45.007 34.1606 45.7392C33.4325 46.4714 33.4325 47.6586 34.1606 48.3908L38.2942 52.5472C37.9121 53.3239 37.6965 54.1974 37.6965 55.1209C37.6965 58.3336 40.2958 60.9473 43.491 60.9473C46.6862 60.9473 49.2855 58.3336 49.2855 55.1209C49.2855 54.1974 49.0697 53.3239 48.6878 52.5472L57.6527 43.5328L57.9236 43.2604C58.6518 42.5282 58.6518 41.3409 57.9236 40.6087C57.1955 39.8765 56.0151 39.8765 55.2865 40.6087ZM43.491 57.1975C42.3524 57.1975 41.426 56.266 41.426 55.1211C41.426 53.9762 42.3524 53.0447 43.491 53.0447C44.6296 53.0447 45.556 53.9762 45.556 55.1211C45.556 56.266 44.6296 57.1975 43.491 57.1975Z" fill="url(#paint2_linear_1021_4962)"/>
<path d="M63.4285 53.2686H61.7009C60.6712 53.2686 59.8362 54.108 59.8362 55.1436C59.8362 56.1791 60.6712 57.0186 61.7009 57.0186H63.4285C64.4582 57.0186 65.2932 56.1791 65.2932 55.1436C65.2932 54.108 64.4582 53.2686 63.4285 53.2686Z" fill="url(#paint3_linear_1021_4962)"/>
<path d="M25.2811 53.2231H23.5537C22.524 53.2231 21.689 54.0626 21.689 55.0981C21.689 56.1337 22.524 56.9731 23.5537 56.9731H25.2811C26.3108 56.9731 27.1458 56.1337 27.1458 55.0981C27.1458 54.0626 26.3108 53.2231 25.2811 53.2231Z" fill="url(#paint4_linear_1021_4962)"/>
<path d="M43.5139 38.6852C44.5436 38.6852 45.3786 37.8458 45.3786 36.8102V35.0732C45.3786 34.0377 44.5436 33.1982 43.5139 33.1982C42.4842 33.1982 41.6492 34.0377 41.6492 35.0732V36.8102C41.6492 37.8458 42.4842 38.6852 43.5139 38.6852Z" fill="url(#paint5_linear_1021_4962)"/>
<path d="M43.4682 71.5566C42.4385 71.5566 41.6035 72.3961 41.6035 73.4316V75.1686C41.6035 76.2042 42.4385 77.0436 43.4682 77.0436C44.4979 77.0436 45.3329 76.2042 45.3329 75.1686V73.4316C45.3329 72.3961 44.4979 71.5566 43.4682 71.5566Z" fill="url(#paint6_linear_1021_4962)"/>
<path fill-rule="evenodd" clip-rule="evenodd" d="M14.1606 32.7296C14.1909 32.731 14.221 32.7333 14.251 32.7356C15.2171 31.4808 16.2726 30.2735 17.4172 29.1226C22.6474 23.8635 29.046 20.4791 35.7805 18.9657V14.1883C33.0216 13.498 30.9708 10.9867 30.9708 8.00205C30.9708 4.48675 33.8149 1.62695 37.3109 1.62695H50.7369C54.2329 1.62695 57.077 4.48675 57.077 8.00205C57.077 10.9869 55.0262 13.4981 52.2671 14.1883V18.9524C59.0223 20.4594 65.4422 23.8485 70.6873 29.1224C76.8249 35.294 80.6768 43.4675 81.5341 52.1372C82.3792 60.6864 80.2962 69.3406 75.6691 76.5061C75.1084 77.3746 73.9537 77.6215 73.0896 77.0575C72.2261 76.4937 71.9805 75.3323 72.5414 74.4638C81.2018 61.0532 79.3128 43.0996 68.05 31.7744C54.8173 18.469 33.2866 18.469 20.0543 31.7744C6.82176 45.0802 6.82176 66.7299 20.0543 80.0354C31.332 91.3754 49.2022 93.2645 62.5457 84.5274C63.4087 83.9623 64.5639 84.2077 65.1259 85.0755C65.688 85.9433 65.4439 87.1049 64.5809 87.67C58.4851 91.6615 51.301 93.779 44.0244 93.779C42.7933 93.779 41.5606 93.7185 40.3287 93.5962C31.6976 92.7388 23.5607 88.8646 17.4172 82.6871C13.5277 78.7762 10.6689 74.2155 8.83958 69.3496H8.80211C7.30547 65.2227 6.47266 60.7851 6.47266 56.1354C6.47266 50.4835 7.59652 45.2383 9.63179 40.5226C10.2397 39.1425 10.9336 37.7917 11.7137 36.4785H11.6725C12.4293 35.1782 13.2605 33.9275 14.1606 32.7296ZM37.3109 5.3772C35.8713 5.3772 34.7002 6.55472 34.7002 8.00224C34.7002 9.44958 35.8713 10.6273 37.3109 10.6273H37.6452H50.4024H50.7369C52.1765 10.6273 53.3475 9.44976 53.3475 8.00224C53.3475 6.55472 52.1765 5.3772 50.7369 5.3772H37.3109ZM39.5099 14.3773V18.3211C42.5071 17.9581 45.5399 17.9558 48.5376 18.3143V14.3773H39.5099Z" fill="url(#paint7_linear_1021_4962)"/>
<defs>
<linearGradient id="paint0_linear_1021_4962" x1="68.8285" y1="78.668" x2="68.9266" y2="82.8556" gradientUnits="userSpaceOnUse">
<stop offset="0.0002" stop-color="#43D1F8"/>
<stop offset="0.9998" stop-color="#4052E8"/>
</linearGradient>
<linearGradient id="paint1_linear_1021_4962" x1="43.8049" y1="25.512" x2="45.3255" y2="90.4746" gradientUnits="userSpaceOnUse">
<stop offset="0.0002" stop-color="#43D1F8"/>
<stop offset="0.9998" stop-color="#4052E8"/>
</linearGradient>
<linearGradient id="paint2_linear_1021_4962" x1="46.177" y1="39.8722" x2="46.6333" y2="63.2013" gradientUnits="userSpaceOnUse">
<stop offset="0.0002" stop-color="#43D1F8"/>
<stop offset="0.9998" stop-color="#4052E8"/>
</linearGradient>
<linearGradient id="paint3_linear_1021_4962" x1="62.5943" y1="53.2349" x2="62.6613" y2="57.4237" gradientUnits="userSpaceOnUse">
<stop offset="0.0002" stop-color="#43D1F8"/>
<stop offset="0.9998" stop-color="#4052E8"/>
</linearGradient>
<linearGradient id="paint4_linear_1021_4962" x1="24.447" y1="53.1895" x2="24.514" y2="57.3783" gradientUnits="userSpaceOnUse">
<stop offset="0.0002" stop-color="#43D1F8"/>
<stop offset="0.9998" stop-color="#4052E8"/>
</linearGradient>
<linearGradient id="paint5_linear_1021_4962" x1="43.5341" y1="33.149" x2="43.7438" y2="39.2725" gradientUnits="userSpaceOnUse">
<stop offset="0.0002" stop-color="#43D1F8"/>
<stop offset="0.9998" stop-color="#4052E8"/>
</linearGradient>
<linearGradient id="paint6_linear_1021_4962" x1="43.4884" y1="71.5074" x2="43.6982" y2="77.6309" gradientUnits="userSpaceOnUse">
<stop offset="0.0002" stop-color="#43D1F8"/>
<stop offset="0.9998" stop-color="#4052E8"/>
</linearGradient>
<linearGradient id="paint7_linear_1021_4962" x1="44.5036" y1="0.800512" x2="47.4365" y2="103.679" gradientUnits="userSpaceOnUse">
<stop offset="0.0002" stop-color="#43D1F8"/>
<stop offset="0.9998" stop-color="#4052E8"/>
</linearGradient>
</defs>
</svg>
