<svg width="18" height="18" viewBox="0 0 18 18" fill="none" xmlns="http://www.w3.org/2000/svg">
<path d="M3.99061 15.6003L15.1275 4.4634C15.5669 4.02405 15.5669 3.31176 15.1275 2.8724C14.6882 2.43305 13.9759 2.43305 13.5365 2.8724L2.39958 14.0094C1.96025 14.4487 1.96022 15.161 2.39958 15.6004C2.83894 16.0397 3.55125 16.0397 3.99061 15.6003Z" fill="white"/>
<path d="M13.5366 15.6003L2.39969 4.4634C1.96033 4.02405 1.96033 3.31176 2.39969 2.8724C2.83905 2.43305 3.55133 2.43305 3.99069 2.8724L15.1276 14.0094C15.567 14.4487 15.567 15.161 15.1276 15.6004C14.6883 16.0397 13.976 16.0397 13.5366 15.6003Z" fill="white"/>
</svg>
