<svg width="20" height="20" viewBox="0 0 20 20" fill="none" xmlns="http://www.w3.org/2000/svg">
<path d="M4.43409 17.3336L16.8084 4.95928C17.2966 4.47111 17.2966 3.67968 16.8084 3.19151C16.3203 2.70333 15.5288 2.70333 15.0407 3.19151L2.66628 15.5659C2.17814 16.054 2.17811 16.8455 2.66628 17.3337C3.15446 17.8218 3.94592 17.8218 4.43409 17.3336Z" fill="#0A315F"/>
<path d="M15.0406 17.3336L2.66628 4.95928C2.17811 4.47111 2.17811 3.67968 2.66628 3.19151C3.15446 2.70333 3.94588 2.70333 4.43406 3.19151L16.8084 15.5659C17.2966 16.054 17.2966 16.8455 16.8084 17.3337C16.3203 17.8218 15.5288 17.8218 15.0406 17.3336Z" fill="#0A315F"/>
</svg>
