<svg width="30" height="30" viewBox="0 0 30 30" fill="none" xmlns="http://www.w3.org/2000/svg">
<g clip-path="url(#clip0_1270_16004)">
<path d="M15 0C6.7159 0 0 6.7159 0 15C0 23.2841 6.7159 30 15 30C23.2841 30 30 23.2841 30 15C30 6.7159 23.2841 0 15 0ZM15 27.5C8.0966 27.5 2.50002 21.9034 2.50002 15C2.50002 8.0966 8.0966 2.50002 15 2.50002C21.9034 2.50002 27.5 8.0966 27.5 15C27.5 21.9034 21.9034 27.5 15 27.5Z" fill="#DDEAF5"/>
<path d="M9.99061 21.6006L21.1275 10.4636C21.5669 10.0243 21.5669 9.31201 21.1275 8.87265C20.6882 8.43329 19.9759 8.43329 19.5365 8.87265L8.39958 20.0096C7.96025 20.4489 7.96022 21.1612 8.39958 21.6006C8.83894 22.04 9.55125 22.0399 9.99061 21.6006Z" fill="#DDEAF5"/>
<path d="M19.5367 21.6006L8.39981 10.4636C7.96045 10.0243 7.96045 9.31201 8.39981 8.87265C8.83917 8.43329 9.55145 8.43329 9.99081 8.87265L21.1278 20.0096C21.5671 20.4489 21.5671 21.1612 21.1278 21.6006C20.6884 22.04 19.9761 22.0399 19.5367 21.6006Z" fill="#DDEAF5"/>
</g>
<defs>
<clipPath id="clip0_1270_16004">
<rect width="30" height="30" fill="white"/>
</clipPath>
</defs>
</svg>
