<svg width="16" height="16" viewBox="0 0 16 16" fill="none" xmlns="http://www.w3.org/2000/svg">
<g clip-path="url(#clip0_916_8001)">
<path d="M16 8C16 12.4183 12.4183 16 8 16C5.67086 16 3.5742 15.0047 2.11233 13.4162C1.72833 12.9992 1.38841 12.5411 1.0991 12.0496C0.400653 10.8617 0 9.47755 0 8C0 3.58171 3.58171 0 8 0C9.47788 0 10.862 0.400653 12.0496 1.09943C12.5411 1.38841 12.9989 1.72833 13.4158 2.11265C15.0044 3.57388 16 5.67086 16 8Z" fill="#F0CD00"/>
<path d="M16 7.99994C16 12.3186 12.5783 15.838 8.29778 15.9944C4.01729 15.838 0.595581 12.3186 0.595581 7.99994C0.595581 3.68125 4.01729 0.161901 8.29778 0.00549316C12.5783 0.161901 16 3.68125 16 7.99994Z" fill="#FFDE50"/>
<path d="M13.4159 2.11271L2.11235 13.4162C1.72835 12.9992 1.38843 12.5411 1.09912 12.0497L12.0497 1.09949C12.5411 1.38847 12.9989 1.72839 13.4159 2.11271Z" fill="#FFEA94"/>
<path d="M15.4481 5.07523L5.07491 15.4485C4.34054 15.1598 3.65907 14.7657 3.04944 14.2847L14.2847 3.04944C14.7657 3.65907 15.1598 4.34054 15.4481 5.07523Z" fill="#FFEA94"/>
<path d="M14.2165 8.00006C14.2165 11.4332 11.4332 14.2165 8.00006 14.2165C6.8043 14.2165 5.68757 13.8789 4.73965 13.2938C4.32659 13.0391 3.94586 12.737 3.6043 12.3955C3.3532 12.1447 3.12332 11.8721 2.91794 11.5811C2.63516 11.1805 2.39843 10.7449 2.2159 10.2822C1.94553 9.5981 1.79337 8.85426 1.78422 8.07647C1.78357 8.051 1.78357 8.02553 1.78357 8.00006C1.78357 4.56692 4.56659 1.78357 8.00006 1.78357C8.02553 1.78357 8.05133 1.78357 8.07679 1.78422C8.85459 1.79337 9.5981 1.94586 10.2822 2.2159C10.7449 2.39875 11.1805 2.63516 11.5811 2.91794C11.8721 3.12365 12.1444 3.3532 12.3955 3.6043C12.737 3.94553 13.0391 4.32659 13.2938 4.73965C13.8789 5.68757 14.2165 6.8043 14.2165 8.00006Z" fill="#FAA300"/>
<path d="M12.3955 3.6043L3.6043 12.3955C3.3532 12.1447 3.12332 11.8721 2.91794 11.5811C2.63516 11.1805 2.39843 10.7449 2.2159 10.2822C1.94553 9.5981 1.79337 8.85426 1.78422 8.07647C1.78357 8.051 1.78357 8.02553 1.78357 8.00006C1.78357 4.56692 4.56659 1.78357 8.00006 1.78357C8.02553 1.78357 8.05132 1.78357 8.07679 1.78422C8.85459 1.79337 9.5981 1.94586 10.2822 2.2159C10.7449 2.39875 11.1805 2.63516 11.5811 2.91794C11.8721 3.12365 12.1444 3.3532 12.3955 3.6043Z" fill="#FFBD00"/>
<path d="M14.2163 8.00006C14.2163 11.4332 11.433 14.2165 7.99982 14.2165C7.88195 14.2165 7.76505 14.2133 7.6488 14.2068C10.9187 14.0249 13.5139 11.3153 13.5139 8.00006C13.5139 4.68479 10.9187 1.97524 7.6488 1.79337C7.76505 1.78683 7.88195 1.78357 7.99982 1.78357C11.433 1.78357 14.2163 4.56692 14.2163 8.00006Z" fill="#F68E00"/>
<path d="M7.79514 7.52233V5.00475C8.1875 5.2212 8.45395 5.63897 8.45395 6.11789C8.45395 6.45572 8.72781 6.72958 9.06564 6.72958C9.40347 6.72958 9.67733 6.45572 9.67733 6.11789C9.67733 4.95378 8.87547 3.9736 7.79514 3.70016V3.20227C7.79514 2.86444 7.52128 2.59058 7.18345 2.59058C6.84562 2.59058 6.57176 2.86444 6.57176 3.20227V3.70013C5.49144 3.9736 4.68958 4.95374 4.68958 6.11786C4.68958 6.81294 4.89372 7.35498 5.31367 7.77493C5.61986 8.08112 6.02659 8.3077 6.57176 8.47381V10.9953C6.1794 10.7789 5.91295 10.3612 5.91295 9.88223C5.91295 9.5444 5.63909 9.27054 5.30126 9.27054C4.96344 9.27054 4.68958 9.5444 4.68958 9.88223C4.68958 11.0463 5.49144 12.0265 6.57176 12.3V12.7978C6.57176 13.1357 6.84562 13.4095 7.18345 13.4095C7.52128 13.4095 7.79514 13.1357 7.79514 12.7978V12.3C8.87547 12.0265 9.67733 11.0464 9.67733 9.88223C9.67733 9.19678 9.46443 8.63636 9.04458 8.2165C8.73944 7.91133 8.32765 7.68256 7.79514 7.52233ZM6.17875 6.90989C6.055 6.78617 5.91299 6.58431 5.91299 6.11786C5.91299 5.63894 6.17944 5.2212 6.5718 5.00471V7.17014C6.4068 7.09373 6.27619 7.00736 6.17875 6.90989ZM7.79514 10.9953V8.82323C8.32677 9.0708 8.45395 9.42499 8.45395 9.88223C8.45395 10.3612 8.1875 10.7789 7.79514 10.9953Z" fill="#F68E00"/>
<path d="M8.61155 7.52233V5.00475C9.00391 5.2212 9.27036 5.63897 9.27036 6.11789C9.27036 6.45572 9.54422 6.72958 9.88205 6.72958C10.2199 6.72958 10.4937 6.45572 10.4937 6.11789C10.4937 4.95378 9.69188 3.9736 8.61155 3.70016V3.20227C8.61155 2.86444 8.33769 2.59058 7.99986 2.59058C7.66203 2.59058 7.38817 2.86444 7.38817 3.20227V3.70013C6.30784 3.9736 5.50598 4.95374 5.50598 6.11786C5.50598 6.81294 5.71013 7.35498 6.13008 7.77494C6.43627 8.08112 6.84299 8.3077 7.38817 8.47381V10.9953C6.99581 10.7789 6.72936 10.3612 6.72936 9.88223C6.72936 9.54441 6.4555 9.27054 6.11767 9.27054C5.77984 9.27054 5.50598 9.54441 5.50598 9.88223C5.50598 11.0463 6.30784 12.0265 7.38817 12.3V12.7978C7.38817 13.1357 7.66203 13.4095 7.99986 13.4095C8.33769 13.4095 8.61155 13.1357 8.61155 12.7978V12.3C9.69188 12.0265 10.4937 11.0464 10.4937 9.88223C10.4937 9.19678 10.2808 8.63636 9.86099 8.2165C9.55584 7.91133 9.14402 7.68256 8.61155 7.52233ZM6.99512 6.90989C6.87137 6.78617 6.72936 6.58431 6.72936 6.11786C6.72936 5.63894 6.99581 5.2212 7.38817 5.00471V7.17014C7.22321 7.09373 7.09259 7.00736 6.99512 6.90989ZM8.61155 10.9953V8.82323C9.14317 9.07081 9.27036 9.42499 9.27036 9.88223C9.27032 10.3612 9.00391 10.7789 8.61155 10.9953Z" fill="#FFEA94"/>
</g>
<defs>
<clipPath id="clip0_916_8001">
<rect width="16" height="16" fill="white"/>
</clipPath>
</defs>
</svg>
