<svg width="18" height="18" viewBox="0 0 18 18" fill="none" xmlns="http://www.w3.org/2000/svg">
<g clip-path="url(#clip0_840_639)">
<path d="M1.90592 8.77852C1.90592 8.77852 2.61706 9.82325 4.10755 10.7076C4.10755 10.7076 3.02807 1.58446 10.0615 0C8.25954 6.61363 12.3537 8.47877 13.8461 4.98466C16.3385 8.31224 14.4461 11.2154 14.4461 11.2154C15.4681 11.3626 16.3265 10.2461 16.3265 10.2461C16.3342 10.3836 16.3385 10.5221 16.3385 10.6616C16.3385 14.7145 13.053 18 9.00007 18C4.94715 18 1.66162 14.7145 1.66162 10.6616C1.66162 10.0105 1.74684 9.37948 1.90592 8.77852Z" fill="#FBBF00"/>
<path d="M16.3265 10.2461C16.3265 10.2461 15.468 11.3626 14.4461 11.2154C14.4461 11.2154 16.3384 8.31224 13.8461 4.98466C12.3537 8.47877 8.2595 6.61363 10.0615 0C9.68481 0.0848672 9.33156 0.191496 9 0.317039V18C13.0529 18 16.3384 14.7145 16.3384 10.6616C16.3384 10.5221 16.3342 10.3836 16.3265 10.2461Z" fill="#FFA900"/>
<path d="M5.78174 14.7816C5.78174 16.559 7.22265 17.9999 9.00008 17.9999C10.7775 17.9999 12.2184 16.559 12.2184 14.7816C12.2184 13.8302 11.8057 12.9753 11.1494 12.3861C9.90507 14.0766 8.13186 11.5123 9.51379 9.63965C9.51379 9.63965 5.78174 10.1073 5.78174 14.7816Z" fill="#FF6536" fill-opacity="0.37"/>
</g>
<defs>
<clipPath id="clip0_840_639">
<rect width="18" height="18" fill="white"/>
</clipPath>
</defs>
</svg>
