<svg width="22" height="14" viewBox="0 0 22 14" fill="none" xmlns="http://www.w3.org/2000/svg">
<g clip-path="url(#clip0_939_4141)">
<path d="M0 -0.216797H22V14.2159H0V-0.216797Z" fill="white"/>
<path d="M10.0712 -0.216797V5.85933H0V8.43195H10.0712V14.2166H12.111V8.43195H22V5.85933H12.111V-0.216797H10.0712Z" fill="#BD0034"/>
<path d="M9.39056 -0.216797H1.71875L9.39056 4.63489V-0.216797Z" fill="#1A237B"/>
<path d="M0 5.0018H5.40719L0 1.57324V5.0018Z" fill="#1A237B"/>
<path d="M0 -0.21875V0.6255L6.48931 4.67694H8.08294C8.08294 4.67694 1.68713 0.715562 0.16775 -0.21875H0Z" fill="#BD0034"/>
<path d="M9.39056 14.2169H1.71875L9.39056 9.36523V14.2169Z" fill="#1A237B"/>
<path d="M0 8.99805H5.40719L0 12.4266V8.99805Z" fill="#1A237B"/>
<path d="M0 14.2189V13.3747L6.48931 9.32324H8.08294C8.08294 9.32324 1.68713 13.2846 0.16775 14.2189H0Z" fill="#BD0034"/>
<path d="M12.6094 -0.216797H20.2812L12.6094 4.63489V-0.216797Z" fill="#1A237B"/>
<path d="M22 5.0018H16.5928L22 1.57324V5.0018Z" fill="#1A237B"/>
<path d="M22 -0.21875V0.6255L15.5107 4.67694H13.9171C13.9171 4.67694 20.3108 0.715562 21.8322 -0.216688L22 -0.21875Z" fill="#BD0034"/>
<path d="M12.6094 14.2169H20.2812L12.6094 9.36523V14.2169Z" fill="#1A237B"/>
<path d="M22 8.99805H16.5928L22 12.4266V8.99805Z" fill="#1A237B"/>
<path d="M22 14.2189V13.3747L15.5107 9.32324H13.9171C13.9171 9.32324 20.3108 13.2846 21.8322 14.2169L22 14.2189Z" fill="#BD0034"/>
</g>
<defs>
<clipPath id="clip0_939_4141">
<rect width="22" height="14" fill="white"/>
</clipPath>
</defs>
</svg>
