<svg width="171" height="175" viewBox="0 0 171 175" fill="none" xmlns="http://www.w3.org/2000/svg">
<path class="line line1" d="M163.227 81.6133H132.136C127.844 81.6133 124.363 85.0937 124.363 89.386C124.363 93.6784 127.844 97.1588 132.136 97.1588H163.227C167.519 97.1588 171 93.6784 171 89.386C171 85.0937 167.52 81.6133 163.227 81.6133Z" fill="#4CABE9"/>
<path class="line line2" d="M38.8638 81.6133H7.77276C3.48039 81.6133 0 85.0937 0 89.386C0 93.6784 3.48039 97.1588 7.77276 97.1588H38.8638C43.1562 97.1588 46.6366 93.6784 46.6366 89.386C46.6366 85.0937 43.1562 81.6133 38.8638 81.6133Z" fill="#4CABE9"/>
<path class="line line3" d="M134.965 28.929L112.98 50.9143C109.944 53.949 109.944 58.8706 112.98 61.9061C114.497 63.4243 116.487 64.1834 118.475 64.1834C120.465 64.1834 122.454 63.4251 123.972 61.9061L145.957 39.9208C148.992 36.8861 148.992 31.9645 145.957 28.929C142.922 25.8935 138.001 25.8935 134.965 28.929Z" fill="#4CABE9"/>
<path class="line line4" d="M85.7728 126C81.4804 126 78 129.48 78 133.773V164.864C78 169.156 81.4804 172.637 85.7728 172.637C90.0651 172.637 93.5455 169.156 93.5455 164.864V133.773C93.5455 129.48 90.0651 126 85.7728 126Z" fill="#4CABE9"/>
<path class="line line5" d="M47.0268 116.868L25.0423 138.854C22.0067 141.889 22.0067 146.81 25.0423 149.846C26.5596 151.363 28.5491 152.122 30.5386 152.122C32.5281 152.122 34.5176 151.363 36.0341 149.846L58.0186 127.86C61.0541 124.825 61.0541 119.904 58.0186 116.868C54.9839 113.833 50.0623 113.833 47.0268 116.868Z" fill="#4CABE9"/>
<path class="line line6" d="M126.034 116.868L148.018 138.854C151.054 141.889 151.054 146.81 148.018 149.846C146.501 151.363 144.511 152.122 142.522 152.122C140.532 152.122 138.543 151.363 137.026 149.846L115.042 127.86C112.006 124.825 112.006 119.904 115.042 116.868C118.077 113.833 122.998 113.833 126.034 116.868Z" fill="#4CABE9"/>
<path class="line line7" d="M85.5013 3.88477C81.2089 3.88477 77.7285 7.36516 77.7285 11.6575V42.7486C77.7285 47.041 81.2089 50.5213 85.5013 50.5213C89.7937 50.5213 93.274 47.041 93.274 42.7486V11.6575C93.274 7.36516 89.7937 3.88477 85.5013 3.88477Z" fill="#4CABE9"/>
<path class="line line8" d="M36.0341 28.929C32.9994 25.8935 28.0778 25.8935 25.0423 28.929C22.0067 31.9645 22.0067 36.8853 25.0423 39.9208L47.0268 61.9061C48.5441 63.4243 50.5336 64.1834 52.5231 64.1834C54.5118 64.1834 56.502 63.4243 58.0186 61.9061C61.0541 58.8714 61.0541 53.9498 58.0186 50.9143L36.0341 28.929Z" fill="#4CABE9"/>

<style>


</style>
.line {
    animation: default2 1.2s infinite linear;
}

@keyframes default2 {
  0% {
    opacity: 1;
  }
  85% {
    opacity: 0.1;
  }
  100% {
    opacity: 0.1;
  }
}






</svg>
