<svg width="89" height="96" viewBox="0 0 89 96" fill="none" xmlns="http://www.w3.org/2000/svg">
<path d="M76.7598 43.2446V28.7599C76.7598 12.9017 63.8581 0 47.9999 0C32.1418 0 19.2401 12.9017 19.2401 28.7599V43.2446C17.2961 44.6884 16.0334 47.0008 16.0334 49.6033V80.8691C16.0334 85.2197 18.5518 89.1786 22.4491 90.9553C29.585 94.2084 38.6591 96 47.9999 96C57.3408 96 66.4149 94.2084 73.5506 90.9555C77.4483 89.1786 79.9666 85.2195 79.9666 80.8691V49.6033C79.9666 47.0012 78.704 44.6888 76.7598 43.2446ZM22.2463 28.7599C22.2463 14.5594 33.7993 3.00619 47.9999 3.00619C62.2006 3.00619 73.7536 14.5594 73.7536 28.7599V41.8734C73.2044 41.7523 72.6348 41.6869 72.05 41.6869H70.3464V28.7599C70.3464 16.4379 60.3217 6.41325 47.9998 6.41325C35.6778 6.41325 25.6533 16.4381 25.6533 28.7599V41.6869H23.9497C23.3649 41.6869 22.7953 41.7527 22.2461 41.8734V28.7599H22.2463ZM67.3402 28.7599V41.6869H28.6597V28.7599C28.6597 18.0956 37.3357 9.41962 47.9999 9.41962C58.6642 9.41962 67.3402 18.0956 67.3402 28.7599ZM76.9603 80.8691C76.9603 84.0452 75.1325 86.9306 72.3037 88.2201C65.5511 91.2984 56.9197 92.9938 47.9999 92.9938C39.0802 92.9938 30.4488 91.2984 23.6962 88.2201C20.8676 86.9306 19.0396 84.0452 19.0396 80.8691V49.6033C19.0396 46.8958 21.2424 44.6931 23.9499 44.6931H72.05C74.7575 44.6931 76.9603 46.8958 76.9603 49.6033V80.8691Z" fill="#677580"/>
<path d="M47.5533 56.0166C43.1881 56.0166 39.6368 59.568 39.6368 63.933C39.6368 66.4253 40.8464 68.7777 42.8435 70.263V75.1564C42.8435 77.7535 44.9562 79.8662 47.5533 79.8662C50.1503 79.8662 52.2631 77.7535 52.2631 75.1564V70.263C54.2601 68.7777 55.4697 66.4253 55.4697 63.933C55.4697 59.568 51.9185 56.0166 47.5533 56.0166ZM50.0039 68.1578C49.5413 68.4272 49.2567 68.922 49.2567 69.457V75.1566C49.2567 76.096 48.4925 76.8602 47.5531 76.8602C46.6137 76.8602 45.8495 76.096 45.8495 75.1566V69.4572C45.8495 68.922 45.565 68.4272 45.1023 68.158C43.5623 67.2615 42.6428 65.6822 42.6428 63.9332C42.6428 61.2257 44.8456 59.023 47.5531 59.023C50.2606 59.023 52.4633 61.2257 52.4633 63.9332C52.4635 65.6822 51.544 67.2615 50.0039 68.1578Z" fill="#677580"/>
<path d="M71.6033 48C70.7732 48 70.1001 48.6729 70.1001 49.5032V51.1065C70.1001 51.9366 70.773 52.6097 71.6033 52.6097C72.4333 52.6097 73.1065 51.9367 73.1065 51.1065V49.5032C73.1065 48.6731 72.4335 48 71.6033 48Z" fill="#677580"/>
<path d="M71.6033 56.0166C70.7732 56.0166 70.1001 56.6895 70.1001 57.5198V70.3465C70.1001 71.1765 70.773 71.8497 71.6033 71.8497C72.4333 71.8497 73.1065 71.1767 73.1065 70.3465V57.5198C73.1065 56.6897 72.4335 56.0166 71.6033 56.0166Z" fill="#677580"/>
<path d="M23.5032 62.4302C22.6731 62.4302 22 63.1031 22 63.9334V81.5702C22 82.4002 22.6729 83.0734 23.5032 83.0734C24.3332 83.0734 25.0064 82.4004 25.0064 81.5702V63.9334C25.0062 63.1031 24.3332 62.4302 23.5032 62.4302Z" fill="#677580"/>
</svg>
