<svg width="101" height="21" viewBox="0 0 101 21" fill="none" xmlns="http://www.w3.org/2000/svg">
<path d="M10.4748 1.32764H7.58456L0 19.4586H4.14419L5.85545 15.4981H12.3504L13.9831 19.4586H18.1344L10.4748 1.32764ZM11.225 12.1406H7.08439L9.05291 7.35487L11.225 12.1406Z" fill="white"/>
<path d="M29.9418 7.31939C29.4194 6.73633 28.7761 6.27111 28.0554 5.95528C27.3348 5.63944 26.5538 5.48041 25.7654 5.48898C24.8205 5.51409 23.891 5.73052 23.0343 6.12485C22.1776 6.51917 21.4121 7.08296 20.7852 7.78138C19.5869 9.15265 18.9354 10.9078 18.9525 12.7188C18.9592 14.5076 19.6086 16.2359 20.7852 17.5963C21.3842 18.301 22.1312 18.8688 22.9744 19.2604C23.8177 19.6519 24.737 19.8579 25.6689 19.864C26.5557 19.88 27.433 19.6817 28.2244 19.2865C29.0158 18.8912 29.6974 18.311 30.2096 17.5963V19.4231H33.2607V1.01001H29.9418V7.31939ZM26.1405 16.5418C23.9756 16.5418 22.3679 14.7291 22.3679 12.5636C22.3679 10.5816 24.1149 8.77589 26.0798 8.77589C27.122 8.7698 28.124 9.17274 28.8654 9.89597C29.6067 10.6192 30.0267 11.6035 30.0328 12.6324C30.039 13.6613 29.6309 14.6505 28.8982 15.3823C28.1656 16.1141 27.1685 16.5287 26.1263 16.5347L26.1405 16.5418Z" fill="white"/>
<path d="M72.7018 8.1377C71.6305 6.0922 69.3008 5.09766 67.018 5.09766C64.9995 5.09766 62.9524 5.803 60.7482 8.1377C60.2159 8.61028 59.2334 10.5782 59.2334 12.4897C59.2334 14.6657 60.1372 16.4785 60.6624 17.0533C62.5202 19.1694 64.8852 20.0969 67.0644 20.0969C69.3473 20.0969 71.5799 19.0742 72.6949 17.0533V19.7513H74.5811V5.41154H72.7018V8.1377ZM67.068 18.2383C63.9599 18.2383 61.1947 15.7978 61.1947 12.652C61.1975 11.9011 61.3503 11.1581 61.6442 10.4655C61.938 9.77298 62.3674 9.14434 62.9075 8.61569C63.4477 8.08704 64.0882 7.66871 64.7922 7.38453C65.4963 7.10043 66.2502 6.95609 67.0109 6.95976C67.7677 6.95629 68.5175 7.10251 69.2162 7.38987C69.9148 7.67716 70.5481 8.09972 71.0782 8.6326C71.609 9.16547 72.0262 9.79785 72.3048 10.4925C72.5833 11.187 72.7185 11.9297 72.7018 12.6766C72.6748 14.1432 72.0719 15.5421 71.0214 16.5793C69.9709 17.6165 68.5536 18.2112 67.068 18.2383Z" fill="white"/>
<path d="M49.1515 10.7757V12.5391H55.6358V13.2444C54.3889 16.2528 51.12 18.2348 47.7939 18.2348C43.0353 18.2348 39.0018 14.7081 39.0018 9.98217C39.0313 8.86293 39.2913 7.76129 39.7661 6.74447C40.2409 5.72765 40.9205 4.81694 41.7634 4.06784C43.407 2.64113 45.5269 1.86482 47.7153 1.88831C50.4555 1.88831 53.2957 2.94634 54.7248 5.16819L56.3574 3.9832C55.5898 2.97659 54.6534 2.10704 53.5887 1.41221C51.8595 0.308332 49.8089 0.00150481 47.7296 0.00150481C44.889 -0.0457662 42.1455 1.02233 40.1022 2.97103C38.1834 4.80001 37.0751 7.30387 37.019 9.93637C37.019 15.6144 41.9671 20.0828 47.7368 20.0828C52.0239 20.0828 55.9287 17.5683 57.5435 13.8616V10.7757H49.1515Z" fill="white"/>
<path d="M81.3225 0.290771H79.3504V5.34107H76.6174V7.10446H79.3504V19.7302H81.3225V7.10446H84.3556V5.34107H81.3225V0.290771Z" fill="white"/>
<path d="M92.9509 5.05176C90.9289 5.05831 88.9928 5.85751 87.5674 7.27354C86.1427 8.68957 85.3459 10.6065 85.3521 12.6025C85.359 14.5986 86.1684 16.5102 87.6028 17.917C89.0372 19.3238 90.9795 20.1105 93.0015 20.1039C94.3618 20.0707 95.6894 19.6851 96.8515 18.9856C98.0129 18.2862 98.9685 17.2975 99.6212 16.1187L98.0351 15.0607C97.1564 17.0321 94.9729 18.2348 92.8116 18.2348C91.829 18.2086 90.8686 17.936 90.0218 17.4424C89.1751 16.9487 88.469 16.2505 87.9707 15.4134C87.4794 14.5995 87.239 13.6621 87.2778 12.7154H100.471V12.5743C100.462 10.8571 99.8769 9.19134 98.8063 7.83788C98.103 6.97183 97.2118 6.27219 96.1988 5.79011C95.1857 5.30804 94.0756 5.05576 92.9509 5.05176ZM87.5598 10.9062C87.9957 8.85006 90.5644 6.92094 92.9759 6.92094C95.3873 6.92094 97.7884 8.75838 98.2672 10.8638L87.5598 10.9062Z" fill="white"/>
</svg>
