<svg width="28" height="28" viewBox="0 0 28 28" fill="none" xmlns="http://www.w3.org/2000/svg">
<path d="M13.0401 3.07349C13.6522 2.80641 14.3478 2.80641 14.9599 3.07349L21.9599 6.12803C22.8346 6.50972 23.4 7.37338 23.4 8.32773V12.9091C23.4 18.4651 19.6351 23.6699 14.5183 25.237C14.1808 25.3404 13.8192 25.3404 13.4817 25.237C8.3649 23.6699 4.6 18.4651 4.6 12.9091V8.32773C4.6 7.37338 5.16544 6.50972 6.04013 6.12803L13.0401 3.07349ZM13.9798 7.94545C13.0459 7.94545 12.2889 8.7025 12.2889 9.63636C12.2889 10.5702 13.0459 11.3273 13.9798 11.3273H14.0202C14.9541 11.3273 15.7111 10.5702 15.7111 9.63636C15.7111 8.7025 14.9541 7.94545 14.0202 7.94545H13.9798ZM14 13.3091C13.055 13.3091 12.2889 14.0752 12.2889 15.0202V19.3434C12.2889 20.2885 13.055 21.0545 14 21.0545C14.945 21.0545 15.7111 20.2885 15.7111 19.3434V15.0202C15.7111 14.0752 14.945 13.3091 14 13.3091Z" stroke="url(#paint0_linear_939_4132)" stroke-width="1.2"/>
<defs>
<linearGradient id="paint0_linear_939_4132" x1="14.1085" y1="1.78476" x2="14.857" y2="28.5791" gradientUnits="userSpaceOnUse">
<stop offset="0.0002" stop-color="#43D1F8"/>
<stop offset="0.9998" stop-color="#4052E8"/>
</linearGradient>
</defs>
</svg>
