<svg width="28" height="28" viewBox="0 0 28 28" fill="none" xmlns="http://www.w3.org/2000/svg">
<g clip-path="url(#clip0_939_4113)">
<path d="M20.8836 12.2078C21.1057 12.2531 21.3223 12.1099 21.3677 11.8873C21.4691 11.3904 21.5205 10.8791 21.5205 10.3674C21.5205 6.20812 18.1468 2.82422 14 2.82422C9.85316 2.82422 6.47949 6.20812 6.47949 10.3674C6.47949 14.5267 9.85316 17.9106 14 17.9106C16.8265 17.9106 19.3886 16.3446 20.6863 13.8237C20.7902 13.6218 20.7113 13.3736 20.51 13.2693C20.3087 13.165 20.0612 13.2443 19.9573 13.4461C18.801 15.6923 16.5183 17.0877 14 17.0877C10.3056 17.0877 7.29997 14.073 7.29997 10.3674C7.29997 6.66175 10.3056 3.64704 14 3.64704C17.6945 3.64704 20.7001 6.66175 20.7001 10.3674C20.7001 10.8237 20.6543 11.2795 20.564 11.7222C20.5185 11.9449 20.6617 12.1623 20.8836 12.2078Z" fill="url(#paint0_linear_939_4113)"/>
<path d="M18.564 8.8372C18.5157 8.68794 18.3869 8.57931 18.2321 8.55705L15.5586 8.17293L14.3683 5.74127C14.2323 5.43908 13.7677 5.43914 13.6318 5.74127L12.4414 8.17288L9.76795 8.557C9.43902 8.59337 9.2961 9.03678 9.54037 9.25944L11.4781 11.1464L11.0162 13.8154C10.949 14.1394 11.3243 14.4141 11.612 14.2496L14 12.9841L16.388 14.2496C16.6752 14.4141 17.0511 14.1394 16.9838 13.8154L16.5219 11.1464L18.4596 9.25944C18.5719 9.15022 18.6124 8.98641 18.564 8.8372ZM15.7949 10.7075C15.6976 10.8022 15.6533 10.939 15.6764 11.0731L16.0326 13.1306L14.1916 12.155C14.0717 12.0915 13.9282 12.0915 13.8083 12.155L11.9674 13.1306L12.3235 11.0731C12.3467 10.939 12.3023 10.8022 12.205 10.7075L10.7112 9.25277L12.7722 8.9566C12.9064 8.93729 13.0225 8.85279 13.0823 8.73065L13.9999 6.85611L14.9176 8.73065C14.9774 8.85273 15.0934 8.93729 15.2277 8.9566L17.2887 9.25277L15.7949 10.7075Z" fill="url(#paint1_linear_939_4113)"/>
<path d="M25.5116 24.4568L21.5022 17.4914C23.2578 15.6324 24.3362 13.1239 24.3362 10.3673C24.3361 4.65073 19.6994 0 14 0C12.2464 0 10.5141 0.44855 8.98999 1.29719C8.79188 1.40751 8.72045 1.65796 8.83044 1.85666C8.94038 2.05526 9.19011 2.12691 9.38816 2.0167C10.7907 1.23571 12.3854 0.822934 14 0.822934C19.247 0.822934 23.5157 5.10459 23.5157 10.3674C23.5157 15.6302 19.247 19.9118 14 19.9118C8.753 19.9118 4.4843 15.6302 4.4843 10.3673C4.4843 7.54396 5.72078 4.88094 7.87679 3.06114C8.05012 2.91484 8.07238 2.65526 7.92651 2.48144C7.78064 2.30756 7.52188 2.28514 7.34855 2.43156C5.00691 4.40805 3.66389 7.30052 3.66389 10.3673C3.66389 13.1286 4.74591 15.6411 6.5068 17.501L5.37129 19.4737C5.09918 19.9304 5.81918 20.3526 6.08177 19.8851L7.11402 18.0919C8.34897 19.2006 9.85022 20.0163 11.5085 20.4295L7.96868 26.579L7.06321 23.7206C6.99905 23.518 6.79143 23.3979 6.58436 23.4433L3.66361 24.086L5.1245 21.548C5.23778 21.3512 5.17056 21.0996 4.97437 20.986C4.77812 20.8724 4.52729 20.9398 4.41402 21.1365L2.48834 24.482C2.30566 24.7759 2.59576 25.1752 2.93147 25.0896L6.39457 24.3276L7.46817 27.7168C7.56202 28.0502 8.05044 28.1045 8.21436 27.7979L12.3558 20.603C12.8913 20.6893 13.4404 20.7347 13.9998 20.7347C14.5639 20.7347 15.1173 20.6884 15.6571 20.6008L18.1444 24.9221C18.2204 25.0541 18.3583 25.1278 18.5001 25.1278C18.5696 25.1278 18.6402 25.11 18.7048 25.0726C18.901 24.959 18.9682 24.7074 18.8549 24.5106L16.504 20.4264C18.1616 20.0111 19.6618 19.1936 20.8953 18.0833L24.3361 24.0609L21.4154 23.4182C21.2083 23.3727 21.0007 23.4929 20.9365 23.6955L20.0311 26.5539L19.8121 26.1735C19.6988 25.9767 19.4479 25.9093 19.2517 26.0229C19.0555 26.1366 18.9883 26.3882 19.1016 26.5849L19.7853 27.7729C19.9493 28.0795 20.4377 28.0251 20.5315 27.6917L21.6051 24.3025L25.0682 25.0646C25.4043 25.1498 25.6941 24.7508 25.5116 24.4568Z" fill="url(#paint2_linear_939_4113)"/>
</g>
<defs>
<linearGradient id="paint0_linear_939_4113" x1="14.0816" y1="2.68892" x2="14.4749" y2="19.5358" gradientUnits="userSpaceOnUse">
<stop offset="0.0002" stop-color="#43D1F8"/>
<stop offset="0.9998" stop-color="#4052E8"/>
</linearGradient>
<linearGradient id="paint1_linear_939_4113" x1="14.0506" y1="5.43587" x2="14.2694" y2="15.2455" gradientUnits="userSpaceOnUse">
<stop offset="0.0002" stop-color="#43D1F8"/>
<stop offset="0.9998" stop-color="#4052E8"/>
</linearGradient>
<linearGradient id="paint2_linear_939_4113" x1="14.1254" y1="-0.251111" x2="15.0061" y2="31.0086" gradientUnits="userSpaceOnUse">
<stop offset="0.0002" stop-color="#43D1F8"/>
<stop offset="0.9998" stop-color="#4052E8"/>
</linearGradient>
<clipPath id="clip0_939_4113">
<rect width="28" height="28" fill="white"/>
</clipPath>
</defs>
</svg>
