<svg width="28" height="28" viewBox="0 0 28 28" fill="none" xmlns="http://www.w3.org/2000/svg">
<g clip-path="url(#clip0_939_4120)">
<path d="M13.9996 26C11.3038 26.0001 8.66931 25.1645 6.47423 23.6035L3.11943 24.5024C2.94416 24.5493 2.75727 24.4993 2.62897 24.371C2.50072 24.2428 2.45061 24.0558 2.49757 23.8806L3.39649 20.5258C1.66019 18.0842 0.821438 15.0985 1.03179 12.09C1.25016 8.96762 2.59074 6.02765 4.80663 3.8117C9.24227 -0.623908 16.2048 -1.26399 21.3621 2.2898C21.593 2.44892 21.6512 2.76503 21.4921 2.99594C21.333 3.22696 21.0168 3.28509 20.7859 3.12597C16.0322 -0.149848 9.61392 0.440531 5.52475 4.52972C1.36084 8.69365 0.85906 15.3966 4.3576 20.1213C4.4497 20.2457 4.48006 20.4054 4.44 20.5548L3.70605 23.294L6.44514 22.56C6.59461 22.52 6.75429 22.5503 6.87868 22.6424C11.6035 26.141 18.3064 25.6392 22.4702 21.4753C26.5595 17.386 27.1498 10.9676 23.8738 6.21378C23.7147 5.98287 23.7729 5.66671 24.0038 5.50759C24.2347 5.34852 24.5509 5.40671 24.71 5.63757C28.264 10.7949 27.624 17.7576 23.1883 22.1934C20.9724 24.4093 18.0325 25.7499 14.91 25.9683C14.6063 25.9894 14.3024 26 13.9996 26Z" fill="url(#paint0_linear_939_4120)"/>
<path d="M13.9071 17.2893C12.9546 17.2893 12.1833 16.5181 12.1833 15.5701C12.1833 13.7669 13.1931 12.1385 14.8186 11.3205C15.537 10.959 15.9772 10.2051 15.9402 9.39988C15.8957 8.43066 14.9724 7.50749 14.0033 7.46287C13.4394 7.43728 12.9043 7.63614 12.4979 8.0243C12.2555 8.2558 12.0793 8.53056 11.9742 8.84085C11.7355 9.54565 11.0841 10.024 10.3533 10.0312V10.0313C10.3476 10.0313 10.3418 10.0313 10.3361 10.0313C9.78719 10.0313 9.26693 9.7678 8.94154 9.32393C8.61228 8.87481 8.522 8.31535 8.69385 7.78891C8.97085 6.94037 9.46399 6.16083 10.1198 5.53439C11.2129 4.49049 12.6478 3.95426 14.1614 4.02354C15.4879 4.08451 16.763 4.66261 17.7517 5.65135C18.7405 6.64008 19.3185 7.91511 19.3795 9.24169C19.4789 11.4015 18.2962 13.4247 16.3664 14.396C15.9099 14.6257 15.6263 15.0757 15.6263 15.5701C15.6264 16.5181 14.8551 17.2893 13.9071 17.2893ZM13.9034 6.36702C13.9533 6.36702 14.0034 6.36817 14.0537 6.37052C15.5973 6.44149 16.9616 7.80575 17.0326 9.34957C17.0894 10.5851 16.4133 11.7421 15.3102 12.2973C14.056 12.9284 13.2769 14.1825 13.2769 15.57C13.2769 15.915 13.5575 16.1957 13.9025 16.1957C14.2521 16.1957 14.5328 15.915 14.5328 15.57C14.5328 14.6599 15.047 13.8357 15.8748 13.4191C17.4198 12.6415 18.3668 11.0214 18.2872 9.29189C18.2388 8.23831 17.774 7.21999 16.9785 6.4246C16.183 5.62915 15.1647 5.16439 14.1113 5.11589C12.8994 5.06088 11.7501 5.48961 10.8752 6.32519C10.3419 6.83446 9.95778 7.44111 9.73349 8.1283C9.67226 8.31573 9.70512 8.51585 9.82349 8.67737C9.94499 8.84309 10.1314 8.9378 10.3357 8.9378C10.338 8.9378 10.3398 8.93665 10.3424 8.93774C10.6091 8.93512 10.8486 8.75517 10.9384 8.49004C11.0984 8.01763 11.3765 7.58316 11.7425 7.23355C12.331 6.67158 13.0934 6.36702 13.9034 6.36702Z" fill="url(#paint1_linear_939_4120)"/>
<path d="M13.9049 21.9884C12.9556 21.9884 12.1833 21.2161 12.1833 20.2669C12.1833 19.3177 12.9556 18.5454 13.9049 18.5454C14.8541 18.5454 15.6264 19.3177 15.6264 20.2669C15.6264 21.2161 14.8541 21.9884 13.9049 21.9884ZM13.9049 19.639C13.5586 19.639 13.2769 19.9207 13.2769 20.2669C13.2769 20.6132 13.5586 20.8949 13.9049 20.8949C14.2511 20.8949 14.5328 20.6132 14.5328 20.2669C14.5328 19.9207 14.2511 19.639 13.9049 19.639Z" fill="url(#paint2_linear_939_4120)"/>
</g>
<defs>
<linearGradient id="paint0_linear_939_4120" x1="14.141" y1="-0.233174" x2="14.8169" y2="28.8009" gradientUnits="userSpaceOnUse">
<stop offset="0.0002" stop-color="#43D1F8"/>
<stop offset="0.9998" stop-color="#4052E8"/>
</linearGradient>
<linearGradient id="paint1_linear_939_4120" x1="14.0554" y1="3.89855" x2="14.4801" y2="18.7149" gradientUnits="userSpaceOnUse">
<stop offset="0.0002" stop-color="#43D1F8"/>
<stop offset="0.9998" stop-color="#4052E8"/>
</linearGradient>
<linearGradient id="paint2_linear_939_4120" x1="13.9235" y1="18.5145" x2="14.013" y2="22.3593" gradientUnits="userSpaceOnUse">
<stop offset="0.0002" stop-color="#43D1F8"/>
<stop offset="0.9998" stop-color="#4052E8"/>
</linearGradient>
<clipPath id="clip0_939_4120">
<rect width="28" height="28" fill="white"/>
</clipPath>
</defs>
</svg>
