<svg width="28" height="28" viewBox="0 0 28 28" fill="none" xmlns="http://www.w3.org/2000/svg">
<g clip-path="url(#clip0_939_4105)">
<path d="M28 9.54788V8.15668C28 6.838 26.9272 5.7652 25.6085 5.7652H20.7933V4.80674H21.1689C22.2394 4.80674 22.7993 3.53996 22.086 2.74787L20.0627 0.4995C19.4631 -0.167414 18.4177 -0.164898 17.8203 0.499391L15.7976 2.74776C15.0835 3.54078 15.6452 4.80669 16.7146 4.80669H17.0902V5.76536H12.2747C10.9562 5.76536 9.88345 6.83806 9.88345 8.15663V9.06942C4.47163 8.83557 0 13.1751 0 18.5299C0 23.7517 4.24829 27.9999 9.47007 27.9999H25.6087C26.9272 27.9999 28 26.9272 28 25.6087V24.2173C28 23.394 27.5817 22.6665 26.9465 22.2362C27.5817 21.8059 28 21.0785 28 20.2551V18.8637C28 18.0404 27.5817 17.313 26.9465 16.8826C27.5817 16.4523 28 15.7249 28 14.9016V13.5102C28 12.6869 27.5817 11.9594 26.9465 11.5291C27.5817 11.0988 28 10.3713 28 9.54788ZM16.7147 3.98643C16.4654 3.98643 16.3624 3.79863 16.3368 3.74116C16.3112 3.68363 16.2407 3.48172 16.4073 3.2966L18.4303 1.04802C18.7032 0.744391 19.1789 0.743352 19.4528 1.04813L21.4763 3.29677C21.6429 3.48172 21.5724 3.68363 21.5467 3.74116C21.5211 3.79869 21.4181 3.98643 21.1689 3.98643H20.3831C20.1566 3.98643 19.973 4.17002 19.973 4.39659V8.64646C19.973 8.87445 19.7875 9.05995 19.5595 9.05995H18.3241C18.0961 9.05995 17.9106 8.87445 17.9106 8.64646V4.39659C17.9106 4.17002 17.727 3.98643 17.5004 3.98643H16.7147ZM0.820312 18.5299C0.820312 13.7605 4.70056 9.88021 9.47007 9.88021C14.2395 9.88021 18.1198 13.7605 18.1198 18.5299C18.1198 23.2994 14.2395 27.1796 9.47007 27.1796C4.70056 27.1796 0.820312 23.2994 0.820312 18.5299ZM27.1797 24.2173V25.6087C27.1797 26.4749 26.4749 27.1796 25.6087 27.1796H13.3237C15.3641 26.267 17.0249 24.6533 17.9976 22.6464H25.6087C26.4749 22.6464 27.1797 23.3511 27.1797 24.2173ZM27.1797 18.8638V20.2551C27.1797 21.1214 26.4749 21.8261 25.6087 21.8261H18.348C18.8864 20.3805 19.06 18.8243 18.8593 17.2928H25.6087C26.4749 17.2928 27.1797 17.9976 27.1797 18.8638ZM27.1797 9.54788C27.1797 10.4119 26.4771 11.119 25.6087 11.119C25.6 11.119 23.63 11.1191 23.6217 11.1191C23.3952 11.1191 23.2116 11.3027 23.2116 11.5293C23.2116 11.7558 23.3952 11.9394 23.6217 11.9394C23.6294 11.9394 25.6013 11.9394 25.6107 11.9394C26.476 11.9404 27.1797 12.6447 27.1797 13.5103V14.9016C27.1797 15.7678 26.4749 16.4726 25.6087 16.4726H18.7143C18.3277 14.7343 17.4621 13.1746 16.2635 11.9394H21.7077C21.9342 11.9394 22.1178 11.7558 22.1178 11.5293C22.1178 11.3027 21.9342 11.1191 21.7077 11.1191H15.3588C14.0452 10.0731 12.4485 9.36828 10.7038 9.14029V8.15668C10.7038 7.29049 11.4085 6.58573 12.2748 6.58573H17.0903V8.64646C17.0903 9.32672 17.6438 9.88027 18.3241 9.88027H19.5595C20.2398 9.88027 20.7933 9.32677 20.7933 8.64646V6.58545H25.6085C26.4749 6.58545 27.1797 7.29032 27.1797 8.15663V9.54788Z" fill="url(#paint0_linear_939_4105)"/>
<path d="M16.4691 18.5297C16.4691 14.6705 13.3294 11.5308 9.47016 11.5308C5.61064 11.5308 2.4707 14.6705 2.4707 18.5297C2.4707 19.9941 2.91832 21.3968 3.76521 22.5859C3.89662 22.7704 4.15273 22.8134 4.33724 22.6821C4.52176 22.5507 4.5648 22.2946 4.43344 22.1101C3.68608 21.0607 3.29102 19.8226 3.29102 18.5297C3.29102 15.1227 6.06302 12.3511 9.47016 12.3511C12.8771 12.3511 15.6488 15.1228 15.6488 18.5297C15.6488 21.9369 12.8771 24.7088 9.47016 24.7088C8.07913 24.7088 6.76591 24.2576 5.67244 23.4039C5.49399 23.2646 5.2362 23.2961 5.09674 23.4748C4.95734 23.6533 4.98912 23.9111 5.16767 24.0505C6.40667 25.0178 7.89445 25.5291 9.47021 25.5291C13.3294 25.5292 16.4691 22.3892 16.4691 18.5297Z" fill="url(#paint1_linear_939_4105)"/>
<path d="M9.47006 21.414H7.82281C7.59624 21.414 7.41266 21.5976 7.41266 21.8242C7.41266 22.0507 7.59624 22.2343 7.82281 22.2343H9.0599V23.0596C9.0599 23.2862 9.24349 23.4698 9.47006 23.4698C9.69663 23.4698 9.88021 23.2862 9.88021 23.0596V22.1931C10.8188 22.0025 11.5275 21.1709 11.5275 20.1769C11.5275 19.0425 10.6045 18.1195 9.47006 18.1195C8.78789 18.1195 8.23297 17.5646 8.23297 16.8824C8.23297 16.2003 8.78789 15.6454 9.47006 15.6454H11.1173C11.3439 15.6454 11.5275 15.4618 11.5275 15.2352C11.5275 15.0086 11.3439 14.825 11.1173 14.825H9.88021V13.9998C9.88021 13.7732 9.69663 13.5896 9.47006 13.5896C9.24349 13.5896 9.0599 13.7732 9.0599 13.9998V14.8662C8.1213 15.0569 7.41266 15.8884 7.41266 16.8824C7.41266 18.0169 8.33562 18.9398 9.47006 18.9398C10.1522 18.9398 10.7071 19.4948 10.7071 20.1769C10.7071 20.8591 10.1522 21.414 9.47006 21.414Z" fill="url(#paint2_linear_939_4105)"/>
</g>
<defs>
<linearGradient id="paint0_linear_939_4105" x1="14.1519" y1="-0.250864" x2="14.8797" y2="31.0163" gradientUnits="userSpaceOnUse">
<stop offset="0.0002" stop-color="#43D1F8"/>
<stop offset="0.9998" stop-color="#4052E8"/>
</linearGradient>
<linearGradient id="paint1_linear_939_4105" x1="9.54584" y1="11.4052" x2="9.90973" y2="27.0371" gradientUnits="userSpaceOnUse">
<stop offset="0.0002" stop-color="#43D1F8"/>
<stop offset="0.9998" stop-color="#4052E8"/>
</linearGradient>
<linearGradient id="paint2_linear_939_4105" x1="9.49238" y1="13.501" x2="10.1075" y2="24.5057" gradientUnits="userSpaceOnUse">
<stop offset="0.0002" stop-color="#43D1F8"/>
<stop offset="0.9998" stop-color="#4052E8"/>
</linearGradient>
<clipPath id="clip0_939_4105">
<rect width="28" height="28" fill="white"/>
</clipPath>
</defs>
</svg>
