<svg width="28" height="28" viewBox="0 0 28 28" fill="none" xmlns="http://www.w3.org/2000/svg">
<g clip-path="url(#clip0_939_4158)">
<path d="M23.0323 6.32258C23.7792 6.32258 24.3871 5.71471 24.3871 4.96774C24.3871 4.22077 23.7792 3.6129 23.0323 3.6129C22.2853 3.6129 21.6774 4.22077 21.6774 4.96774C21.6774 5.71471 22.2853 6.32258 23.0323 6.32258ZM23.0323 4.51613C23.2811 4.51613 23.4839 4.7189 23.4839 4.96774C23.4839 5.21658 23.2811 5.41935 23.0323 5.41935C22.7834 5.41935 22.5806 5.21658 22.5806 4.96774C22.5806 4.7189 22.7834 4.51613 23.0323 4.51613ZM23.0323 8.12903C24.7755 8.12903 26.1935 6.71097 26.1935 4.96774C26.1935 3.22452 24.7755 1.80645 23.0323 1.80645C21.289 1.80645 19.871 3.22452 19.871 4.96774C19.871 6.71097 21.289 8.12903 23.0323 8.12903ZM23.0323 2.70968C24.2774 2.70968 25.2903 3.72265 25.2903 4.96774C25.2903 6.21284 24.2774 7.22581 23.0323 7.22581C21.7872 7.22581 20.7742 6.21284 20.7742 4.96774C20.7742 3.72265 21.7872 2.70968 23.0323 2.70968ZM2.14968 24.5872C1.94239 24.7529 1.80645 25.0049 1.80645 25.2903V28H9.03226V26.1935H22.5806C23.0788 26.1935 23.4839 25.7885 23.4839 25.2903V9.93548H24.3871V9.32897C24.3871 9.04897 24.6003 8.93877 24.6657 8.91168C24.7312 8.88413 24.9597 8.81142 25.158 9.00968L25.587 9.43871L27.5032 7.52252L27.0742 7.09348C26.8764 6.89568 26.9491 6.66671 26.9762 6.60123C27.0033 6.53574 27.1135 6.32258 27.3935 6.32258H28V3.6129H27.3935C27.1135 3.6129 27.0033 3.39974 26.9762 3.33426C26.9491 3.26877 26.8759 3.04026 27.0742 2.842L27.5032 2.41297L25.587 0.496774L25.158 0.925806C24.9597 1.12361 24.7312 1.0509 24.6657 1.02381C24.6003 0.99671 24.3871 0.886516 24.3871 0.606516V0H21.6774V0.606516C21.6774 0.886516 21.4643 0.99671 21.3988 1.02381C21.3328 1.0509 21.1043 1.12406 20.9065 0.925806L20.4775 0.496774L19.1683 1.80645H7.86439C7.62323 1.80645 7.39652 1.90039 7.22581 2.0711L3.87755 5.41935C3.70684 5.59006 3.6129 5.81677 3.6129 6.05794V9.76342L2.00652 11.5708C0.712645 13.0268 0 14.901 0 16.8488C0 17.7041 0.13729 18.5495 0.407806 19.3611L2.14968 24.5872ZM8.12903 27.0968H2.70968V25.2903H8.12903V27.0968ZM22.5806 25.2903H9.03226C9.03226 24.9927 8.88548 24.7303 8.66284 24.5655L8.7491 24.2205C8.93697 23.4685 9.03226 22.6949 9.03226 21.9208C9.03226 20.2025 8.56484 18.5157 7.68103 17.0425L6.59445 15.2306C6.30542 14.7501 5.77839 14.4516 5.21794 14.4516C4.96503 14.4516 4.72884 14.5157 4.51613 14.6201V6.32258H6.32258V7.22581C6.32258 7.72394 6.72768 8.12903 7.22581 8.12903H16.2581C16.7562 8.12903 17.1613 7.72394 17.1613 7.22581V5.41935C17.1613 4.92123 16.7562 4.51613 16.2581 4.51613H8.12903V2.70968H18.858L18.9903 2.842C19.1881 3.03981 19.1154 3.26877 19.0883 3.33426C19.0612 3.39974 18.951 3.6129 18.671 3.6129H18.0645V6.32258H18.671C18.951 6.32258 19.0612 6.53574 19.0883 6.60123C19.1154 6.66671 19.1886 6.89523 18.9903 7.09348L18.5613 7.52252L20.4775 9.43871L20.9065 9.00968C21.1048 8.81142 21.3333 8.88458 21.3988 8.91168C21.4643 8.93877 21.6774 9.04897 21.6774 9.32897V9.93548H22.5806V25.2903ZM7.22581 6.32258H8.12903V5.41935H16.2581V7.22581H7.22581V6.32258ZM7.22581 5.41935H5.15471L7.22581 3.34826V5.41935ZM19.8168 2.4351L20.4996 1.75226C20.8672 1.98935 21.3229 2.03271 21.7443 1.85839C22.1661 1.68361 22.4574 1.3309 22.5495 0.903226H23.5155C23.6076 1.3309 23.8989 1.68361 24.3207 1.85839C24.7425 2.03316 25.1973 1.99026 25.5654 1.75226L26.2482 2.4351C26.0106 2.80271 25.9673 3.25794 26.1421 3.67974C26.3164 4.10155 26.6691 4.39284 27.0968 4.48497V5.45097C26.6691 5.5431 26.3164 5.83439 26.1416 6.25619C25.9668 6.678 26.0102 7.13277 26.2477 7.50084L25.5649 8.18368C25.1968 7.94613 24.7412 7.90232 24.3203 8.07755C23.8985 8.25232 23.6072 8.60458 23.515 9.03271H22.549C22.4569 8.60503 22.1656 8.25232 21.7438 8.07755C21.3225 7.90277 20.8672 7.94658 20.4992 8.18368L19.8163 7.50084C20.0539 7.13323 20.0972 6.678 19.9225 6.25619C19.7477 5.83439 19.3954 5.5431 18.9673 5.45097V4.48497C19.395 4.39284 19.7477 4.10155 19.9225 3.67974C20.0972 3.25794 20.0543 2.80316 19.8168 2.4351ZM2.68168 12.171L3.6129 11.1232V16.0566C3.6129 16.5444 3.69961 17.0231 3.87077 17.4797L4.99619 20.4811L5.84206 20.1641L4.71665 17.1626C4.58342 16.8077 4.51613 16.436 4.51613 16.0566C4.51613 15.6696 4.8309 15.3548 5.21794 15.3548C5.46271 15.3548 5.69348 15.4854 5.81994 15.6954L6.90652 17.5068C7.70632 18.8399 8.12903 20.3659 8.12903 21.9208C8.12903 22.6213 8.04277 23.3213 7.87297 24.0014L7.77632 24.3871H3.03529L1.26452 19.0752C1.02471 18.3558 0.903226 17.6066 0.903226 16.8488C0.903226 15.1223 1.53458 13.4612 2.68168 12.171ZM8.12903 9.93548H6.32258V9.03226H8.12903V9.93548ZM17.1613 9.93548H9.03226V9.03226H17.1613V9.93548ZM17.1613 11.7419H6.32258V10.8387H17.1613V11.7419ZM13.5484 13.5484H6.32258V12.6452H13.5484V13.5484ZM14.4516 13.5484V12.6452H17.1613V13.5484H14.4516ZM9.93548 15.3548H9.03226V14.4516H9.93548V15.3548ZM10.8387 15.3548V14.4516H11.7419V15.3548H10.8387ZM12.6452 15.3548V14.4516H13.5484V15.3548H12.6452ZM20.3041 18.0243C20.0173 18.1557 19.8231 18.4204 19.7838 18.7334L19.5851 20.323L19.0987 19.5124C18.8968 19.1764 18.5283 18.9677 18.1363 18.9677C17.6206 18.9677 17.173 19.3173 17.0475 19.8181L17.019 19.9319L16.3836 18.6615C16.2003 18.2935 15.8299 18.0645 15.4181 18.0645C14.905 18.0645 14.4597 18.4299 14.3595 18.9325L14.21 19.6799L12.4641 17.7398C12.1326 17.3722 11.6588 17.1613 11.1643 17.1613C10.4869 17.1613 9.93548 17.7127 9.93548 18.3901C9.93548 18.5225 9.95671 18.6534 9.99239 18.7591L10.8559 21.8007L11.7248 21.5541L10.8554 18.4931C10.8446 18.4597 10.8387 18.4249 10.8387 18.3901C10.8387 18.2104 10.9846 18.0645 11.1643 18.0645C11.4037 18.0645 11.6331 18.1666 11.793 18.3445L13.9892 20.785L13.7837 21.8125C13.701 22.2248 13.8067 22.6475 14.0732 22.9722C14.3396 23.2974 14.7334 23.4839 15.1539 23.4839C15.7626 23.4839 16.2581 22.9885 16.2581 22.3797C16.2581 22.1065 16.1574 21.8436 15.9745 21.6408L14.9633 20.5172L15.2451 19.1095C15.2749 18.961 15.5084 18.9294 15.5761 19.0653L16.2115 20.3357C16.3823 20.678 16.739 20.8726 17.1179 20.8297C17.4977 20.7882 17.803 20.5217 17.8956 20.1505L17.9241 20.0372C17.9674 19.8651 18.2334 19.8258 18.3242 19.9775L18.8106 20.7882C19.0115 21.1233 19.3886 21.2868 19.7712 21.2073C20.1537 21.1264 20.4323 20.8234 20.4811 20.4355L20.6798 18.8458L21.4268 19.3439L21.9276 18.5925L21.1806 18.0939C20.9192 17.9191 20.5908 17.8938 20.3041 18.0243ZM15.3034 22.2451C15.3363 22.2821 15.3548 22.3295 15.3548 22.3797C15.3548 22.4903 15.2645 22.5806 15.1539 22.5806C15.0053 22.5806 14.8657 22.5147 14.7714 22.4C14.6774 22.2848 14.6399 22.1358 14.6688 21.9899L14.7425 21.6223L15.3034 22.2451Z" fill="url(#paint0_linear_939_4158)"/>
</g>
<defs>
<linearGradient id="paint0_linear_939_4158" x1="14.1519" y1="-0.251111" x2="14.8797" y2="31.0164" gradientUnits="userSpaceOnUse">
<stop offset="0.0002" stop-color="#43D1F8"/>
<stop offset="0.9998" stop-color="#4052E8"/>
</linearGradient>
<clipPath id="clip0_939_4158">
<rect width="28" height="28" fill="white"/>
</clipPath>
</defs>
</svg>
