<svg width="150" height="19" viewBox="0 0 150 19" fill="none" xmlns="http://www.w3.org/2000/svg">
<path d="M137.264 1.1082C136.999 1.09414 136.734 1.13438 136.485 1.2264C136.237 1.31842 136.01 1.46021 135.819 1.64288C135.629 1.82555 135.479 2.04514 135.378 2.28785C135.278 2.53055 135.23 2.79113 135.236 3.0532C135.236 3.30932 135.288 3.56284 135.39 3.79854C135.491 4.03423 135.64 4.24724 135.827 4.42476C136.014 4.60229 136.236 4.74066 136.478 4.83158C136.72 4.9225 136.979 4.96408 137.239 4.95384C138.429 4.95384 139.292 4.14924 139.292 3.03102C139.292 2.77171 139.239 2.51504 139.137 2.27643C139.034 2.03782 138.883 1.82223 138.693 1.6426C138.504 1.46298 138.28 1.32303 138.034 1.2312C137.788 1.13936 137.526 1.09752 137.264 1.1082Z" fill="white"/>
<path d="M106.247 5.76117C105.433 5.73986 104.636 5.98737 103.982 6.46441C103.512 6.7697 103.109 7.16505 102.797 7.62694C102.529 7.06354 102.101 6.58821 101.566 6.25746C101.032 5.92671 100.412 5.75446 99.7812 5.76117C99.1625 5.7444 98.5495 5.87843 97.9955 6.15138C97.4422 6.42433 96.9654 6.82777 96.6076 7.326L96.5242 6.01458H93.7582V6.24266C93.8154 7.12011 93.8416 8.14329 93.8416 9.56878V17.6655H96.9125V10.8169C96.9069 10.5244 96.9561 10.2334 97.0569 9.95841C97.2847 9.23299 97.904 8.49812 98.7766 8.49812C100.24 8.49812 100.397 10.2182 100.397 10.9562V17.6655H103.468V10.7219C103.475 10.4272 103.514 10.1341 103.583 9.84756C103.808 9.21401 104.38 8.49495 105.265 8.49495C106.658 8.49495 106.949 9.99326 106.949 11.2508V17.6655H110.037V10.8391C110.037 6.11912 107.149 5.76117 106.247 5.76117Z" fill="white"/>
<path d="M116.872 5.9165C113.088 5.9165 111.362 9.16026 111.362 12.1759C111.362 15.822 113.582 18.0869 117.161 18.0869C118.486 18.1017 119.801 17.8529 121.027 17.3552L121.191 17.2855L120.703 14.9002L120.459 14.9953C119.528 15.3485 118.536 15.5164 117.539 15.4894C115.729 15.4894 114.584 14.5676 114.436 13.0091H121.634L121.666 12.8348C121.733 12.4254 121.764 12.011 121.759 11.5962C121.762 8.97018 120.482 5.9165 116.872 5.9165ZM116.718 8.28279C116.965 8.2729 117.212 8.31335 117.443 8.40167C117.673 8.48993 117.883 8.62418 118.059 8.79597C118.498 9.29831 118.74 9.93858 118.742 10.6016H114.452C114.609 9.64493 115.223 8.28597 116.718 8.28597V8.28279Z" fill="white"/>
<path d="M133.567 14.4157V0.794434H129.983V6.81315C129.37 6.07189 128.555 5.73611 127.416 5.73611C126.792 5.73733 126.174 5.86056 125.597 6.09869C125.021 6.33682 124.499 6.68512 124.059 7.1236C122.892 8.27661 122.253 10.0189 122.266 12.0272C122.266 15.5118 124.339 18.046 127.191 18.046C128.699 18.046 129.804 17.3744 130.561 15.9901H130.574L130.34 17.84H133.667V17.6151C133.616 16.8897 133.567 15.6005 133.567 14.4157ZM130.06 11.248V12.9554C130.066 13.2239 130.038 13.4921 129.977 13.7537C129.736 14.8497 129.152 15.3375 128.077 15.3375C126.511 15.3375 125.539 14.0387 125.539 11.9543C125.539 9.79715 126.543 8.40651 128.106 8.40651C129.284 8.40651 129.787 9.57221 130.003 10.5415C130.043 10.7781 130.062 11.0176 130.06 11.2575V11.248Z" fill="white"/>
<path d="M138.952 6.021H135.573V17.8335H138.952V6.021Z" fill="white"/>
<path d="M149.949 17.5928C149.832 16.701 149.78 15.8024 149.792 14.9034V10.8138C149.792 7.6049 148.085 5.83728 144.978 5.83728C143.531 5.81115 142.103 6.16771 140.842 6.86996L140.708 6.9523L141.381 9.23311L141.622 9.07788C142.491 8.55183 143.49 8.27336 144.51 8.27324C146.198 8.27324 146.561 9.22359 146.567 10.0219C142.299 10.0504 139.95 11.6406 139.95 14.5074C139.95 16.2845 141.233 18.0837 143.669 18.0837C144.266 18.0951 144.858 17.9856 145.41 17.7623C145.962 17.5389 146.462 17.2063 146.878 16.7849L147.026 17.8272H150L149.949 17.5928ZM144.542 15.6224C143.66 15.6224 143.152 15.1029 143.152 14.2033C143.152 12.6194 145.007 12.3026 146.564 12.3026H146.618V13.6584C146.62 13.8503 146.592 14.0413 146.538 14.2254C146.397 14.6362 146.127 14.9923 145.77 15.2432C145.411 15.494 144.982 15.6268 144.542 15.6224Z" fill="white"/>
<path d="M9.40847 1.19238H6.81248L0 17.4777H3.72232L5.25939 13.9203H11.0931L12.5597 17.4777H16.2884L9.40847 1.19238ZM10.0824 10.9047H6.36323L8.13136 6.60607L10.0824 10.9047Z" fill="white"/>
<path d="M26.8937 6.57434C26.4246 6.05063 25.8467 5.63276 25.1994 5.34908C24.5522 5.0654 23.8507 4.92256 23.1425 4.93025C22.2938 4.95281 21.4589 5.1472 20.6894 5.50139C19.9199 5.85558 19.2324 6.36197 18.6693 6.9893C17.5929 8.22097 17.0077 9.79747 17.0231 11.4241C17.0292 13.0308 17.6125 14.5832 18.6693 15.8051C19.2073 16.4381 19.8782 16.9481 20.6356 17.2998C21.3931 17.6515 22.2188 17.8365 23.0559 17.8419C23.8523 17.8563 24.6404 17.6782 25.3512 17.3232C26.0621 16.9682 26.6742 16.4471 27.1344 15.8051V17.446H29.8748V0.907227H26.8937V6.57434ZM23.4795 14.8579C21.5349 14.8579 20.0908 13.2297 20.0908 11.2847C20.0908 9.50444 21.66 7.88257 23.4249 7.88257C24.361 7.8771 25.261 8.23902 25.927 8.88863C26.5928 9.53823 26.97 10.4224 26.9755 11.3465C26.9811 12.2707 26.6145 13.1591 25.9565 13.8165C25.2984 14.4738 24.4027 14.8462 23.4666 14.8516L23.4795 14.8579Z" fill="white"/>
<path d="M65.3009 7.30919C64.3387 5.47191 62.2462 4.57861 60.1957 4.57861C58.3827 4.57861 56.544 5.21216 54.5641 7.30919C54.086 7.73367 53.2036 9.5013 53.2036 11.2182C53.2036 13.1727 54.0154 14.8009 54.4871 15.3172C56.1557 17.2179 58.28 18.051 60.2374 18.051C62.2879 18.051 64.2933 17.1324 65.2947 15.3172V17.7406H66.9889V4.86054H65.3009V7.30919ZM60.2407 16.3816C57.4489 16.3816 54.9652 14.1895 54.9652 11.3639C54.9678 10.6895 55.1049 10.0221 55.3689 9.40004C55.6329 8.778 56.0185 8.21336 56.5037 7.73852C56.9888 7.26369 57.5641 6.88794 58.1965 6.6327C58.8289 6.37751 59.5061 6.24786 60.1893 6.25116C60.8691 6.24805 61.5426 6.37938 62.1701 6.63749C62.7976 6.89554 63.3665 7.27508 63.8426 7.75371C64.3194 8.23234 64.6941 8.80035 64.9443 9.42425C65.1945 10.0481 65.3159 10.7152 65.3009 11.3861C65.2767 12.7033 64.7352 13.9598 63.7916 14.8915C62.848 15.8231 61.575 16.3572 60.2407 16.3816Z" fill="white"/>
<path d="M44.148 9.67881V11.2626H49.9722V11.8962C48.8522 14.5983 45.9161 16.3786 42.9286 16.3786C38.6543 16.3786 35.0315 13.2108 35.0315 8.96603C35.058 7.96072 35.2915 6.97122 35.718 6.05791C36.1444 5.1446 36.7548 4.32659 37.512 3.65375C38.9882 2.37227 40.8923 1.67499 42.858 1.69609C45.3193 1.69609 47.8703 2.64641 49.1539 4.64209L50.6203 3.57773C49.9308 2.67359 49.0898 1.89255 48.1335 1.26845C46.5803 0.276945 44.7384 0.00135163 42.8708 0.00135163C40.3193 -0.0411074 37.8551 0.918258 36.0198 2.66859C34.2964 4.31139 33.3009 6.56037 33.2505 8.92489C33.2505 14.0249 37.6949 18.0385 42.8772 18.0385C46.7279 18.0385 50.2353 15.7799 51.6857 12.4506V9.67881H44.148Z" fill="white"/>
<path d="M73.0443 0.26123H71.2729V4.79743H68.8181V6.38131H71.2729V17.7218H73.0443V6.38131H75.7686V4.79743H73.0443V0.26123Z" fill="white"/>
<path d="M83.489 4.5376C81.6728 4.54348 79.9338 5.26133 78.6535 6.53321C77.3738 7.8051 76.6581 9.52686 76.6637 11.3197C76.6699 13.1126 77.3969 14.8296 78.6852 16.0932C79.9736 17.3568 81.7182 18.0634 83.5344 18.0575C84.7562 18.0277 85.9487 17.6813 86.9925 17.0531C88.0357 16.4248 88.8939 15.5368 89.4803 14.478L88.0556 13.5276C87.2664 15.2984 85.3052 16.3786 83.3639 16.3786C82.4813 16.3552 81.6186 16.1102 80.8581 15.6669C80.0975 15.2235 79.4633 14.5964 79.0157 13.8444C78.5745 13.1134 78.3585 12.2714 78.3933 11.4211H90.2439V11.2944C90.2359 9.75198 89.7099 8.25578 88.7483 7.0401C88.1166 6.26222 87.3161 5.63379 86.4062 5.20079C85.4962 4.76779 84.4991 4.54119 83.489 4.5376ZM78.6467 9.79605C79.0381 7.94925 81.3454 6.2165 83.5114 6.2165C85.6774 6.2165 87.834 7.8669 88.2641 9.75802L78.6467 9.79605Z" fill="white"/>
</svg>
