<svg width="28" height="28" viewBox="0 0 28 28" fill="none" xmlns="http://www.w3.org/2000/svg">
<g clip-path="url(#clip0_939_4135)">
<path d="M25.7031 9.84375H18.0116C18.036 9.57394 18.0492 9.30072 18.0492 9.02451C18.0492 4.04837 14.0006 0 9.02451 0C7.43942 0 5.88019 0.416992 4.51535 1.20569C4.25388 1.35672 4.16437 1.69125 4.3154 1.95273C4.46664 2.21442 4.80118 2.30371 5.06265 2.15268C6.26129 1.4599 7.63126 1.09375 9.02451 1.09375C13.3976 1.09375 16.9555 4.65143 16.9555 9.02451C16.9555 13.3976 13.3976 16.9555 9.02451 16.9555C7.19397 16.9555 5.4743 16.349 4.05136 15.2018C3.90866 15.0869 3.7196 15.0525 3.54742 15.1053L2.09586 15.4849L2.66452 14.2352C2.74634 14.0558 2.72498 13.8464 2.60898 13.6868C1.61777 12.3254 1.09375 10.7132 1.09375 9.02451C1.09375 7.62762 1.46182 6.25424 2.15823 5.05304C2.30969 4.79156 2.22061 4.45703 1.95935 4.30557C1.69809 4.15411 1.36356 4.24298 1.21188 4.50446C0.419128 5.87207 0 7.43515 0 9.02451C0 10.838 0.531281 12.5745 1.53958 14.0667L0.623993 16.0783C0.536407 16.2704 0.567383 16.4955 0.703247 16.657C0.839111 16.8185 1.05573 16.8873 1.25995 16.8339L3.58566 16.226C5.14468 17.4037 7.06494 18.0492 9.02451 18.0492C9.45111 18.0492 9.87045 18.0187 10.2812 17.9612V22.75C10.2812 24.0164 11.3116 25.0469 12.5779 25.0469H20.3126L23.7709 27.8763C23.8705 27.9579 23.9933 27.9998 24.1172 27.9998C24.1969 27.9998 24.2768 27.9825 24.3513 27.9472C24.5423 27.8567 24.6641 27.6644 24.6641 27.4529V25.0469H25.7031C26.9697 25.0469 28 24.0164 28 22.75V12.1406C28 10.8741 26.9697 9.84375 25.7031 9.84375ZM26.9062 22.75C26.9062 23.4133 26.3666 23.9531 25.7031 23.9531H24.1172C23.8151 23.9531 23.5703 24.1979 23.5703 24.5V26.2989L20.8693 24.089C20.7204 23.9531 20.5901 23.9531 20.2972 23.9531H12.5779C11.9146 23.9531 11.375 23.4133 11.375 22.75V17.738C14.6099 16.8645 17.1302 14.2339 17.8444 10.9375H25.7031C26.3666 10.9375 26.9062 11.4771 26.9062 12.1406V22.75Z" fill="url(#paint0_linear_939_4135)"/>
<path d="M21.862 19.0643C22.0474 18.9769 22.176 18.7887 22.176 18.5699C22.176 18.2681 21.9312 18.0231 21.6291 18.0231H21.4052L19.6416 14.0035C19.5542 13.8047 19.3576 13.6763 19.1406 13.6763C18.9236 13.6763 18.727 13.8047 18.6399 14.0035L16.8762 18.0231H16.6523C16.3503 18.0231 16.1055 18.2681 16.1055 18.5699C16.1055 18.7887 16.2341 18.9769 16.4195 19.0643L15.7626 20.5613C15.6412 20.838 15.7671 21.1606 16.0435 21.2819C16.3201 21.4032 16.6427 21.2774 16.7641 21.0008L17.5908 19.1168H20.6907L21.5174 21.0008C21.6073 21.2058 21.8079 21.328 22.0185 21.328C22.0918 21.328 22.1664 21.3133 22.2379 21.2819C22.5144 21.1606 22.6404 20.838 22.5188 20.5613L21.862 19.0643ZM18.0706 18.0231L19.1406 15.5844L20.2106 18.0231H18.0706Z" fill="url(#paint1_linear_939_4135)"/>
<path d="M3.02979 3.57666C3.17355 3.57666 3.31454 3.51813 3.41644 3.41644C3.51813 3.31476 3.57666 3.17377 3.57666 3.02979C3.57666 2.88602 3.51813 2.74503 3.41644 2.64313C3.31454 2.54144 3.17355 2.48291 3.02979 2.48291C2.88538 2.48291 2.74481 2.54144 2.64313 2.64313C2.54144 2.74503 2.48291 2.88602 2.48291 3.02979C2.48291 3.17377 2.54144 3.31476 2.64313 3.41644C2.74481 3.51834 2.8858 3.57666 3.02979 3.57666Z" fill="url(#paint2_linear_939_4135)"/>
<path d="M5.76011 12.3527C5.49522 12.4979 5.39824 12.8303 5.5435 13.0952C5.64305 13.2766 5.8304 13.3793 6.02351 13.3793C6.11238 13.3793 6.20253 13.3575 6.28605 13.3118C7.50563 12.643 8.44386 11.6026 8.99266 10.3758C9.54167 11.6026 10.4797 12.643 11.6993 13.3118C11.7828 13.3575 11.8729 13.3793 11.9618 13.3793C12.1549 13.3793 12.3423 13.2766 12.4418 13.0952C12.5871 12.8303 12.4901 12.4979 12.2252 12.3527C10.7976 11.5697 9.83668 10.1705 9.59807 8.58948H12.0261C12.3282 8.58948 12.573 8.34467 12.573 8.0426C12.573 7.74054 12.3282 7.49573 12.0261 7.49573H9.53953V5.2168C9.53953 4.91473 9.29472 4.66992 8.99266 4.66992C8.69059 4.66992 8.44578 4.91473 8.44578 5.2168V7.49573H6.4702C6.16813 7.49573 5.92332 7.74054 5.92332 8.0426C5.92332 8.34467 6.16813 8.58948 6.4702 8.58948H8.38725C8.14863 10.1705 7.18776 11.5699 5.76011 12.3527Z" fill="url(#paint3_linear_939_4135)"/>
</g>
<defs>
<linearGradient id="paint0_linear_939_4135" x1="14.1519" y1="-0.251109" x2="14.8797" y2="31.0162" gradientUnits="userSpaceOnUse">
<stop offset="0.0002" stop-color="#43D1F8"/>
<stop offset="0.9998" stop-color="#4052E8"/>
</linearGradient>
<linearGradient id="paint1_linear_939_4135" x1="19.1779" y1="13.6076" x2="19.4001" y2="22.1513" gradientUnits="userSpaceOnUse">
<stop offset="0.0002" stop-color="#43D1F8"/>
<stop offset="0.9998" stop-color="#4052E8"/>
</linearGradient>
<linearGradient id="paint2_linear_939_4135" x1="3.03572" y1="2.4731" x2="3.06415" y2="3.69449" gradientUnits="userSpaceOnUse">
<stop offset="0.0002" stop-color="#43D1F8"/>
<stop offset="0.9998" stop-color="#4052E8"/>
</linearGradient>
<linearGradient id="paint3_linear_939_4135" x1="9.06299" y1="4.59181" x2="9.34076" y2="14.3149" gradientUnits="userSpaceOnUse">
<stop offset="0.0002" stop-color="#43D1F8"/>
<stop offset="0.9998" stop-color="#4052E8"/>
</linearGradient>
<clipPath id="clip0_939_4135">
<rect width="28" height="28" fill="white"/>
</clipPath>
</defs>
</svg>
