<svg width="15" height="13" viewBox="0 0 15 13" fill="none" xmlns="http://www.w3.org/2000/svg">
<path d="M1.75 5.7C1.30817 5.7 0.95 6.05817 0.95 6.5C0.95 6.94183 1.30817 7.3 1.75 7.3L1.75 5.7ZM14.3157 7.06568C14.6281 6.75326 14.6281 6.24673 14.3157 5.93431L9.22452 0.843145C8.9121 0.530726 8.40556 0.530726 8.09315 0.843145C7.78073 1.15556 7.78073 1.6621 8.09315 1.97452L12.6186 6.5L8.09315 11.0255C7.78073 11.3379 7.78073 11.8444 8.09315 12.1569C8.40557 12.4693 8.9121 12.4693 9.22452 12.1569L14.3157 7.06568ZM1.75 7.3L13.75 7.3L13.75 5.7L1.75 5.7L1.75 7.3Z" fill="white"/>
</svg>
