<svg width="15" height="13" viewBox="0 0 15 13" fill="none" xmlns="http://www.w3.org/2000/svg">
<path d="M13.25 7.3C13.6918 7.3 14.05 6.94183 14.05 6.5C14.05 6.05817 13.6918 5.7 13.25 5.7L13.25 7.3ZM0.684315 5.93432C0.371895 6.24674 0.371895 6.75327 0.684315 7.06569L5.77548 12.1569C6.0879 12.4693 6.59444 12.4693 6.90685 12.1569C7.21927 11.8444 7.21927 11.3379 6.90685 11.0255L2.38137 6.5L6.90685 1.97452C7.21927 1.6621 7.21927 1.15557 6.90685 0.843146C6.59443 0.530727 6.0879 0.530727 5.77548 0.843147L0.684315 5.93432ZM13.25 5.7L1.25 5.7L1.25 7.3L13.25 7.3L13.25 5.7Z" fill="white"/>
</svg>
