<svg width="21" height="21" viewBox="0 0 21 21" fill="none" xmlns="http://www.w3.org/2000/svg">
<path d="M20.9857 2.11982C21.0881 1.64326 20.6209 1.24144 20.1651 1.41534L0.395798 8.96214C0.157869 9.05299 0.00049334 9.28104 1.15776e-06 9.5357C-0.000491025 9.79041 0.155982 10.0191 0.393583 10.1108L5.94717 12.2557V19.0114C5.94717 19.2964 6.14285 19.5441 6.42011 19.61C6.69553 19.6755 6.98272 19.5444 7.11184 19.2883L9.40873 14.7304L15.014 18.8902C15.355 19.1433 15.8451 18.9824 15.9692 18.5757C21.2027 1.4167 20.9764 2.16293 20.9857 2.11982ZM16.1057 4.28206L6.4752 11.1406L2.33151 9.54025L16.1057 4.28206ZM7.17762 12.1509L15.5721 6.17266C8.34877 13.7929 8.72603 13.3918 8.69453 13.4342C8.64773 13.4972 8.77595 13.2518 7.17762 16.4235V12.1509ZM15.0467 17.3822L10.1128 13.7206L19.034 4.30913L15.0467 17.3822Z" fill="white"/>
</svg>
